<?xml version="1.0" encoding="UTF-8" standalone="no"?>
<svg
   xmlns:dc="http://purl.org/dc/elements/1.1/"
   xmlns:cc="http://creativecommons.org/ns#"
   xmlns:rdf="http://www.w3.org/1999/02/22-rdf-syntax-ns#"
   xmlns:svg="http://www.w3.org/2000/svg"
   xmlns="http://www.w3.org/2000/svg"
   xmlns:sodipodi="http://sodipodi.sourceforge.net/DTD/sodipodi-0.dtd"
   xmlns:inkscape="http://www.inkscape.org/namespaces/inkscape"
   color-rendering="auto"
   color-interpolation="auto"
   text-rendering="auto"
   width="174.2832"
   stroke-miterlimit="10"
   shape-rendering="auto"
   font-weight="normal"
   height="84"
   font-style="normal"
   font-size="12"
   image-rendering="auto"
   id="svg6161"
   version="1.1"
   inkscape:version="0.48.2 r9819"
   sodipodi:docname="2Cl-Pro.svg"
   style="font-size:12px;font-style:normal;font-weight:normal;fill:#000000;fill-opacity:1;stroke:#000000;stroke-width:1;stroke-linecap:square;stroke-linejoin:miter;stroke-miterlimit:10;stroke-opacity:1;stroke-dasharray:none;stroke-dashoffset:0;font-family:Dialog">
  <metadata
     id="metadata6242">
    <rdf:RDF>
      <cc:Work
         rdf:about="">
        <dc:format>image/svg+xml</dc:format>
        <dc:type
           rdf:resource="http://purl.org/dc/dcmitype/StillImage" />
        <dc:title />
      </cc:Work>
    </rdf:RDF>
  </metadata>
  <sodipodi:namedview
     pagecolor="#ffffff"
     bordercolor="#666666"
     borderopacity="1"
     objecttolerance="10"
     gridtolerance="10"
     guidetolerance="10"
     inkscape:pageopacity="0"
     inkscape:pageshadow="2"
     inkscape:window-width="1057"
     inkscape:window-height="939"
     id="namedview6240"
     showgrid="false"
     showborder="false"
     inkscape:showpageshadow="false"
     fit-margin-top="0"
     fit-margin-left="0"
     fit-margin-right="0"
     fit-margin-bottom="0"
     inkscape:zoom="1"
     inkscape:cx="137.5"
     inkscape:cy="-137"
     inkscape:window-x="475"
     inkscape:window-y="87"
     inkscape:window-maximized="0"
     inkscape:current-layer="svg6161" />
  <!--Generated by Marvin with Batik SVG Generator
MolSource:
<?xml version="1.0" encoding="UTF-8"?><cml version="ChemAxon file format v6.0, generated by v6.0.3">
<MDocument><MChemicalStruct><molecule molID="m1"><atomArray atomID="a1 a2 a3 a4 a5 a6 a7 a8 a9 a10" elementType="C C C C N C O O Cl Cl" x2="1.829814078762803 0.2898140787628036 -0.18607209257461543 1.0598140787628039 2.3057002501002226 1.0598140787628039 2.3934932005908394 -0.27386504306523135 -1.6506991276691516 -0.6153752097676048" y2="-0.28981407876280424 -0.2898140787628036 1.1748129563317329 2.0800022448621416 1.1748129563317324 3.620002244862141 4.390002244862141 4.390002244862142 1.6506991276691518 -1.5357002501002228"></atomArray><bondArray><bond atomRefs2="a1 a2" order="1"></bond><bond atomRefs2="a2 a3" order="1"></bond><bond atomRefs2="a3 a4" order="1"></bond><bond atomRefs2="a4 a5" order="1"></bond><bond atomRefs2="a1 a5" order="1"></bond><bond atomRefs2="a4 a6" order="1"></bond><bond atomRefs2="a6 a7" order="2"></bond><bond atomRefs2="a6 a8" order="1"></bond><bond atomRefs2="a3 a9" order="1"></bond><bond atomRefs2="a2 a10" order="1"></bond></bondArray></molecule></MChemicalStruct></MDocument>
</cml>-->
  <defs
     id="genericDefs">
    <clipPath
       clipPathUnits="userSpaceOnUse"
       id="clipPath1-0">
      <path
         inkscape:connector-curvature="0"
         d="M 0,0 125,0 125,92 0,92 0,0 z"
         id="path6469" />
    </clipPath>
    <clipPath
       clipPathUnits="userSpaceOnUse"
       id="clipPath6685">
      <path
         inkscape:connector-curvature="0"
         d="M 0,0 125,0 125,92 0,92 0,0 z"
         id="path6687" />
    </clipPath>
    <clipPath
       clipPathUnits="userSpaceOnUse"
       id="clipPath6689">
      <path
         inkscape:connector-curvature="0"
         d="M 0,0 125,0 125,92 0,92 0,0 z"
         id="path6691" />
    </clipPath>
    <clipPath
       clipPathUnits="userSpaceOnUse"
       id="clipPath6693">
      <path
         inkscape:connector-curvature="0"
         d="M 0,0 125,0 125,92 0,92 0,0 z"
         id="path6695" />
    </clipPath>
    <clipPath
       clipPathUnits="userSpaceOnUse"
       id="clipPath6697">
      <path
         inkscape:connector-curvature="0"
         d="M 0,0 125,0 125,92 0,92 0,0 z"
         id="path6699" />
    </clipPath>
    <clipPath
       clipPathUnits="userSpaceOnUse"
       id="clipPath6701">
      <path
         inkscape:connector-curvature="0"
         d="M 0,0 125,0 125,92 0,92 0,0 z"
         id="path6703" />
    </clipPath>
    <clipPath
       clipPathUnits="userSpaceOnUse"
       id="clipPath6705">
      <path
         inkscape:connector-curvature="0"
         d="M 0,0 125,0 125,92 0,92 0,0 z"
         id="path6707" />
    </clipPath>
    <clipPath
       clipPathUnits="userSpaceOnUse"
       id="clipPath6709">
      <path
         inkscape:connector-curvature="0"
         d="M 0,0 125,0 125,92 0,92 0,0 z"
         id="path6711" />
    </clipPath>
    <clipPath
       clipPathUnits="userSpaceOnUse"
       id="clipPath6713">
      <path
         inkscape:connector-curvature="0"
         d="M 0,0 125,0 125,92 0,92 0,0 z"
         id="path6715" />
    </clipPath>
    <clipPath
       clipPathUnits="userSpaceOnUse"
       id="clipPath6717">
      <path
         inkscape:connector-curvature="0"
         d="M 0,0 125,0 125,92 0,92 0,0 z"
         id="path6719" />
    </clipPath>
    <clipPath
       clipPathUnits="userSpaceOnUse"
       id="clipPath6721">
      <path
         inkscape:connector-curvature="0"
         d="M 0,0 125,0 125,92 0,92 0,0 z"
         id="path6723" />
    </clipPath>
    <clipPath
       clipPathUnits="userSpaceOnUse"
       id="clipPath6725">
      <path
         inkscape:connector-curvature="0"
         d="M 0,0 125,0 125,92 0,92 0,0 z"
         id="path6727" />
    </clipPath>
    <clipPath
       clipPathUnits="userSpaceOnUse"
       id="clipPath6729">
      <path
         inkscape:connector-curvature="0"
         d="M 0,0 125,0 125,92 0,92 0,0 z"
         id="path6731" />
    </clipPath>
    <clipPath
       clipPathUnits="userSpaceOnUse"
       id="clipPath6733">
      <path
         inkscape:connector-curvature="0"
         d="M 0,0 125,0 125,92 0,92 0,0 z"
         id="path6735" />
    </clipPath>
    <clipPath
       clipPathUnits="userSpaceOnUse"
       id="clipPath6737">
      <path
         inkscape:connector-curvature="0"
         d="M 0,0 125,0 125,92 0,92 0,0 z"
         id="path6739" />
    </clipPath>
    <clipPath
       clipPathUnits="userSpaceOnUse"
       id="clipPath6741">
      <path
         inkscape:connector-curvature="0"
         d="M 0,0 125,0 125,92 0,92 0,0 z"
         id="path6743" />
    </clipPath>
    <clipPath
       clipPathUnits="userSpaceOnUse"
       id="clipPath6745">
      <path
         inkscape:connector-curvature="0"
         d="M 0,0 125,0 125,92 0,92 0,0 z"
         id="path6747" />
    </clipPath>
    <clipPath
       clipPathUnits="userSpaceOnUse"
       id="clipPath6749">
      <path
         inkscape:connector-curvature="0"
         d="M 0,0 125,0 125,92 0,92 0,0 z"
         id="path6751" />
    </clipPath>
    <clipPath
       clipPathUnits="userSpaceOnUse"
       id="clipPath6753">
      <path
         inkscape:connector-curvature="0"
         d="M 0,0 125,0 125,92 0,92 0,0 z"
         id="path6755" />
    </clipPath>
    <clipPath
       clipPathUnits="userSpaceOnUse"
       id="clipPath6757">
      <path
         inkscape:connector-curvature="0"
         d="M 0,0 125,0 125,92 0,92 0,0 z"
         id="path6759" />
    </clipPath>
    <clipPath
       clipPathUnits="userSpaceOnUse"
       id="clipPath6761">
      <path
         inkscape:connector-curvature="0"
         d="M 0,0 125,0 125,92 0,92 0,0 z"
         id="path6763" />
    </clipPath>
    <clipPath
       clipPathUnits="userSpaceOnUse"
       id="clipPath6765">
      <path
         inkscape:connector-curvature="0"
         d="M 0,0 125,0 125,92 0,92 0,0 z"
         id="path6767" />
    </clipPath>
    <clipPath
       clipPathUnits="userSpaceOnUse"
       id="clipPath6769">
      <path
         inkscape:connector-curvature="0"
         d="M 0,0 125,0 125,92 0,92 0,0 z"
         id="path6771" />
    </clipPath>
    <clipPath
       clipPathUnits="userSpaceOnUse"
       id="clipPath6773">
      <path
         inkscape:connector-curvature="0"
         d="M 0,0 125,0 125,92 0,92 0,0 z"
         id="path6775" />
    </clipPath>
    <clipPath
       clipPathUnits="userSpaceOnUse"
       id="clipPath6777">
      <path
         inkscape:connector-curvature="0"
         d="M 0,0 125,0 125,92 0,92 0,0 z"
         id="path6779" />
    </clipPath>
    <clipPath
       clipPathUnits="userSpaceOnUse"
       id="clipPath6781">
      <path
         inkscape:connector-curvature="0"
         d="M 0,0 125,0 125,92 0,92 0,0 z"
         id="path6783" />
    </clipPath>
    <clipPath
       clipPathUnits="userSpaceOnUse"
       id="clipPath6785">
      <path
         inkscape:connector-curvature="0"
         d="M 0,0 125,0 125,92 0,92 0,0 z"
         id="path6787" />
    </clipPath>
    <clipPath
       clipPathUnits="userSpaceOnUse"
       id="clipPath6789">
      <path
         inkscape:connector-curvature="0"
         d="M 0,0 125,0 125,92 0,92 0,0 z"
         id="path6791" />
    </clipPath>
    <clipPath
       clipPathUnits="userSpaceOnUse"
       id="clipPath6793">
      <path
         inkscape:connector-curvature="0"
         d="M 0,0 125,0 125,92 0,92 0,0 z"
         id="path6795" />
    </clipPath>
    <clipPath
       clipPathUnits="userSpaceOnUse"
       id="clipPath6797">
      <path
         inkscape:connector-curvature="0"
         d="M 0,0 125,0 125,92 0,92 0,0 z"
         id="path6799" />
    </clipPath>
    <clipPath
       clipPathUnits="userSpaceOnUse"
       id="clipPath6801">
      <path
         inkscape:connector-curvature="0"
         d="M 0,0 125,0 125,92 0,92 0,0 z"
         id="path6803" />
    </clipPath>
    <clipPath
       clipPathUnits="userSpaceOnUse"
       id="clipPath6805">
      <path
         inkscape:connector-curvature="0"
         d="M 0,0 125,0 125,92 0,92 0,0 z"
         id="path6807" />
    </clipPath>
    <clipPath
       clipPathUnits="userSpaceOnUse"
       id="clipPath6809">
      <path
         inkscape:connector-curvature="0"
         d="M 0,0 125,0 125,92 0,92 0,0 z"
         id="path6811" />
    </clipPath>
  </defs>
  <text
     xml:space="preserve"
     style="font-size:12px;font-style:normal;font-variant:normal;font-weight:normal;font-stretch:normal;line-height:100%;letter-spacing:0px;word-spacing:0px;fill:#000000;fill-opacity:1;stroke:none;font-family:Arial;-inkscape-font-specification:Arial"
     x="134"
     y="46.294922"
     id="text6244"
     sodipodi:linespacing="100%"><tspan
       sodipodi:role="line"
       id="tspan6246"
       x="134"
       y="46.294922">Cl2-Pro</tspan></text>
  <g
     transform="translate(-1,-3)"
     id="g6465">
    <defs
       id="defs1-8">
      <clipPath
         clipPathUnits="userSpaceOnUse"
         id="clipPath6815">
        <path
           inkscape:connector-curvature="0"
           d="M 0,0 125,0 125,92 0,92 0,0 z"
           id="path6817" />
      </clipPath>
    </defs>
    <g
       style="font-size:9px;stroke-width:1.16866374;stroke-linecap:round;stroke-linejoin:bevel;font-family:Arial"
       font-size="9"
       text-rendering="optimizeLegibility"
       shape-rendering="geometricPrecision"
       id="g6471">
      <line
         style="fill:none"
         clip-path="url(#clipPath1-0)"
         x1="96.781685"
         x2="96.781685"
         y1="17.611202"
         y2="45.732174"
         id="line6473" />
      <line
         style="fill:none"
         clip-path="url(#clipPath1-0)"
         x1="96.781685"
         x2="70.037056"
         y1="45.732174"
         y2="54.422031"
         id="line6475" />
      <line
         style="fill:none"
         clip-path="url(#clipPath1-0)"
         x1="70.037056"
         x2="53.507961"
         y1="54.422031"
         y2="31.671688"
         id="line6477" />
      <line
         style="fill:none"
         clip-path="url(#clipPath1-0)"
         x1="53.507961"
         x2="59.902187"
         y1="31.671688"
         y2="22.870792"
         id="line6479" />
      <line
         style="fill:none;stroke:#333399"
         clip-path="url(#clipPath1-0)"
         x1="59.902187"
         x2="66.29641"
         y1="22.870792"
         y2="14.069896"
         id="line6481" />
      <line
         style="fill:none"
         clip-path="url(#clipPath1-0)"
         x1="96.781685"
         x2="86.435616"
         y1="17.611202"
         y2="14.249558"
         id="line6483" />
      <line
         style="fill:none;stroke:#333399"
         clip-path="url(#clipPath1-0)"
         x1="86.435616"
         x2="76.089539"
         y1="14.249558"
         y2="10.887916"
         id="line6485" />
      <line
         style="fill:none"
         clip-path="url(#clipPath1-0)"
         x1="53.507961"
         x2="25.38699"
         y1="31.671688"
         y2="31.671688"
         id="line6487" />
      <line
         style="fill:none"
         clip-path="url(#clipPath1-0)"
         x1="23.925781"
         x2="18.121225"
         y1="34.202576"
         y2="24.148792"
         id="line6489" />
      <line
         style="fill:none"
         clip-path="url(#clipPath1-0)"
         x1="28.309406"
         x2="22.50485"
         y1="31.671688"
         y2="21.617905"
         id="line6491" />
      <line
         style="fill:none;stroke:#ff0000"
         clip-path="url(#clipPath1-0)"
         x1="18.121225"
         x2="12.31667"
         y1="24.148792"
         y2="14.095007"
         id="line6493" />
      <line
         style="fill:none;stroke:#ff0000"
         clip-path="url(#clipPath1-0)"
         x1="22.50485"
         x2="16.700296"
         y1="21.617905"
         y2="11.564119"
         id="line6495" />
      <line
         style="fill:none"
         clip-path="url(#clipPath1-0)"
         x1="25.38699"
         x2="19.947737"
         y1="31.671688"
         y2="41.092751"
         id="line6497" />
      <line
         style="fill:none;stroke:#ff0000"
         clip-path="url(#clipPath1-0)"
         x1="19.947737"
         x2="14.508483"
         y1="41.092751"
         y2="50.513813"
         id="line6499" />
      <line
         style="fill:none"
         clip-path="url(#clipPath1-0)"
         x1="70.037056"
         x2="66.675415"
         y1="54.422031"
         y2="64.768105"
         id="line6501" />
      <line
         style="fill:none;stroke:#009900"
         clip-path="url(#clipPath1-0)"
         x1="66.675415"
         x2="63.313766"
         y1="64.768105"
         y2="75.114182"
         id="line6503" />
      <line
         style="fill:none"
         clip-path="url(#clipPath1-0)"
         x1="96.781685"
         x2="105.58259"
         y1="45.732174"
         y2="52.1264"
         id="line6505" />
      <line
         style="fill:none;stroke:#009900"
         clip-path="url(#clipPath1-0)"
         x1="105.58259"
         x2="114.38348"
         y1="52.1264"
         y2="58.520626"
         id="line6507" />
    </g>
    <g
       style="font-size:7px;fill:#009900;stroke:#009900;font-family:Arial"
       font-size="7"
       text-rendering="optimizeLegibility"
       shape-rendering="geometricPrecision"
       id="g6509">
      <text
         style="stroke:none"
         xml:space="preserve"
         x="102"
         y="13"
         clip-path="url(#clipPath1-0)"
         id="text6511">       </text>
      <text
         style="stroke:none"
         xml:space="preserve"
         x="102"
         y="41"
         clip-path="url(#clipPath1-0)"
         id="text6513">       </text>
      <text
         style="stroke:none"
         xml:space="preserve"
         x="72"
         y="48"
         clip-path="url(#clipPath1-0)"
         id="text6515">       </text>
      <text
         style="stroke:none"
         xml:space="preserve"
         x="60"
         y="31"
         clip-path="url(#clipPath1-0)"
         id="text6517">       </text>
      <rect
         style="font-size:9px;fill:#ffffff;stroke:none"
         font-size="9"
         x="60"
         y="4"
         clip-path="url(#clipPath1-0)"
         width="15"
         rx="5"
         ry="3"
         height="11"
         id="rect6519" />
      <text
         style="font-size:9px;fill:#333399;stroke:none"
         font-size="9"
         x="60"
         y="13"
         clip-path="url(#clipPath1-0)"
         xml:space="preserve"
         id="text6521">HN       </text>
      <text
         style="fill:#333399;stroke:none"
         x="30"
         y="27"
         clip-path="url(#clipPath1-0)"
         xml:space="preserve"
         id="text6523">       </text>
      <rect
         style="font-size:9px;fill:#ffffff;stroke:none"
         font-size="9"
         x="8"
         y="3"
         clip-path="url(#clipPath1-0)"
         width="7"
         rx="2.5"
         ry="3"
         height="11"
         id="rect6525" />
      <text
         style="font-size:9px;fill:#ff0000;stroke:none"
         font-size="9"
         x="8"
         y="12"
         clip-path="url(#clipPath1-0)"
         xml:space="preserve"
         id="text6527">O       </text>
      <rect
         style="font-size:9px;fill:#ffffff;stroke:none"
         font-size="9"
         x="1"
         y="51"
         clip-path="url(#clipPath1-0)"
         width="15"
         rx="5"
         ry="3"
         height="11"
         id="rect6529" />
      <text
         style="font-size:9px;fill:#ff0000;stroke:none"
         font-size="9"
         x="1"
         y="60"
         clip-path="url(#clipPath1-0)"
         xml:space="preserve"
         id="text6531">HO       </text>
      <rect
         style="font-size:9px;fill:#ffffff;stroke:none"
         font-size="9"
         x="57"
         y="76"
         clip-path="url(#clipPath1-0)"
         width="9"
         rx="3"
         ry="3"
         height="11"
         id="rect6533" />
      <text
         style="font-size:9px;stroke:none"
         font-size="9"
         x="57"
         y="85"
         clip-path="url(#clipPath1-0)"
         xml:space="preserve"
         id="text6535">Cl       </text>
      <rect
         style="font-size:9px;fill:#ffffff;stroke:none"
         font-size="9"
         x="115"
         y="58"
         clip-path="url(#clipPath1-0)"
         width="9"
         rx="3"
         ry="3"
         height="11"
         id="rect6537" />
      <text
         style="font-size:9px;stroke:none"
         font-size="9"
         x="115"
         y="67"
         clip-path="url(#clipPath1-0)"
         xml:space="preserve"
         id="text6539">Cl       </text>
    </g>
  </g>
</svg>
