<?xml version="1.0" encoding="UTF-8" standalone="no"?>
<svg
   xmlns:dc="http://purl.org/dc/elements/1.1/"
   xmlns:cc="http://creativecommons.org/ns#"
   xmlns:rdf="http://www.w3.org/1999/02/22-rdf-syntax-ns#"
   xmlns:svg="http://www.w3.org/2000/svg"
   xmlns="http://www.w3.org/2000/svg"
   xmlns:sodipodi="http://sodipodi.sourceforge.net/DTD/sodipodi-0.dtd"
   xmlns:inkscape="http://www.inkscape.org/namespaces/inkscape"
   color-rendering="auto"
   color-interpolation="auto"
   text-rendering="auto"
   width="590"
   stroke-miterlimit="10"
   shape-rendering="auto"
   font-weight="normal"
   height="83.322884"
   font-style="normal"
   font-size="12"
   image-rendering="auto"
   id="svg2"
   version="1.1"
   inkscape:version="0.48.2 r9819"
   sodipodi:docname="acides_gras.svg"
   style="font-size:12px;font-style:normal;font-weight:normal;fill:#000000;fill-opacity:1;stroke:#000000;stroke-width:1;stroke-linecap:square;stroke-linejoin:miter;stroke-miterlimit:10;stroke-opacity:1;stroke-dasharray:none;stroke-dashoffset:0;font-family:Dialog">
  <metadata
     id="metadata247">
    <rdf:RDF>
      <cc:Work
         rdf:about="">
        <dc:format>image/svg+xml</dc:format>
        <dc:type
           rdf:resource="http://purl.org/dc/dcmitype/StillImage" />
        <dc:title />
      </cc:Work>
    </rdf:RDF>
  </metadata>
  <sodipodi:namedview
     pagecolor="#ffffff"
     bordercolor="#666666"
     borderopacity="1"
     objecttolerance="10"
     gridtolerance="10"
     guidetolerance="10"
     inkscape:pageopacity="0"
     inkscape:pageshadow="2"
     inkscape:window-width="1494"
     inkscape:window-height="992"
     id="namedview245"
     showgrid="false"
     fit-margin-top="0"
     fit-margin-left="0"
     fit-margin-right="0"
     fit-margin-bottom="0"
     showborder="false"
     inkscape:showpageshadow="false"
     inkscape:zoom="1"
     inkscape:cx="264"
     inkscape:cy="-110.17712"
     inkscape:window-x="66"
     inkscape:window-y="24"
     inkscape:window-maximized="0"
     inkscape:current-layer="g5" />
  <!--Generated by Marvin with Batik SVG Generator
MolSource:
<?xml version="1.0" encoding="UTF-8"?><cml version="ChemAxon file format v6.0, generated by v6.0.3">
<MDocument><MChemicalStruct><molecule molID="m1"><atomArray atomID="a1 a2 a3 a4 a5 a6 a7 a8 a9 a10 a11 a12 a13 a14 a15 a16 a17 a18 a19 a20 a21 a22 a23 a24 a25 a26 a27 a28 a29 a30 a31 a32 a33 a34 a35 a36" elementType="C C C C C C C C O O C C C C C C O O O C C C C C C C C C C C C C C O O N" x2="3.0029999999999992 2.2329999999999997 0.6929999999999998 -0.07699999999999974 -1.6169999999999998 -2.3869999999999996 -3.9269999999999996 -4.696999999999999 2.2329999999999988 4.542999999999999 8.722999999999999 10.056679121828035 11.39035824365607 12.724037365484104 14.057716487312142 15.391395609140176 16.725074730968213 15.391395609140176 12.724037365484104 -8.943495287552711 -7.609816165724675 -7.609816165724675 -6.2761370438966395 -4.942457922068604 -3.60877880024057 -2.275099678412534 -0.9414205565844966 0.3922585652435373 1.7259376870715712 3.0596168088996087 4.393295930727643 5.72697505255568 7.060654174383714 8.394333296211748 7.060654174383714 4.393295930727643" y2="2.0005186827420536 0.6668395609140181 0.6668395609140179 -0.6668395609140179 -0.6668395609140179 -2.0005186827420536 -2.0005186827420536 -3.3341978045700893 3.3341978045700893 2.0005186827420536 0.7700000000000009 0.0 0.77 -4.440892098500626E-16 0.7699999999999996 -8.881784197001252E-16 0.7699999999999991 -1.540000000000001 -1.5400000000000005 -8.724197804570089 -7.9541978045700885 -6.4141978045700885 -8.724197804570089 -7.954197804570089 -8.724197804570089 -7.954197804570089 -8.724197804570089 -7.954197804570089 -8.72419780457009 -7.954197804570091 -8.72419780457009 -7.954197804570091 -8.724197804570093 -7.954197804570092 -10.264197804570092 -10.264197804570092"></atomArray><bondArray><bond atomRefs2="a2 a1" order="1"></bond><bond atomRefs2="a2 a3" order="2"></bond><bond atomRefs2="a4 a3" order="1"></bond><bond atomRefs2="a4 a5" order="2"></bond><bond atomRefs2="a5 a6" order="1"></bond><bond atomRefs2="a6 a7" order="1"></bond><bond atomRefs2="a7 a8" order="1"></bond><bond atomRefs2="a1 a9" order="2"></bond><bond atomRefs2="a1 a10" order="1"></bond><bond atomRefs2="a11 a12" order="1"></bond><bond atomRefs2="a12 a13" order="1"></bond><bond atomRefs2="a13 a14" order="1"></bond><bond atomRefs2="a14 a15" order="1"></bond><bond atomRefs2="a15 a16" order="1"></bond><bond atomRefs2="a16 a17" order="2"></bond><bond atomRefs2="a16 a18" order="1"></bond><bond atomRefs2="a14 a19" order="1"></bond><bond atomRefs2="a20 a21" order="1"></bond><bond atomRefs2="a21 a22" order="1"></bond><bond atomRefs2="a21 a23" order="1"></bond><bond atomRefs2="a23 a24" order="1"></bond><bond atomRefs2="a24 a25" order="1"></bond><bond atomRefs2="a25 a26" order="1"></bond><bond atomRefs2="a26 a27" order="1"></bond><bond atomRefs2="a27 a28" order="1"></bond><bond atomRefs2="a28 a29" order="1"></bond><bond atomRefs2="a29 a30" order="1"></bond><bond atomRefs2="a30 a31" order="1"></bond><bond atomRefs2="a31 a32" order="1"></bond><bond atomRefs2="a32 a33" order="1"></bond><bond atomRefs2="a33 a34" order="2"></bond><bond atomRefs2="a33 a35" order="1"></bond><bond atomRefs2="a31 a36" order="1"></bond></bondArray></molecule></MChemicalStruct></MDocument>
</cml>-->
  <defs
     id="genericDefs">
    <clipPath
       clipPathUnits="userSpaceOnUse"
       id="clipPath1-6">
      <path
         inkscape:connector-curvature="0"
         d="M 0,0 222,0 222,61 0,61 0,0 z"
         id="path5028" />
    </clipPath>
    <clipPath
       clipPathUnits="userSpaceOnUse"
       id="clipPath5114">
      <path
         inkscape:connector-curvature="0"
         d="M 0,0 222,0 222,61 0,61 0,0 z"
         id="path5116" />
    </clipPath>
    <clipPath
       clipPathUnits="userSpaceOnUse"
       id="clipPath5118">
      <path
         inkscape:connector-curvature="0"
         d="M 0,0 222,0 222,61 0,61 0,0 z"
         id="path5120" />
    </clipPath>
    <clipPath
       clipPathUnits="userSpaceOnUse"
       id="clipPath5122">
      <path
         inkscape:connector-curvature="0"
         d="M 0,0 222,0 222,61 0,61 0,0 z"
         id="path5124" />
    </clipPath>
    <clipPath
       clipPathUnits="userSpaceOnUse"
       id="clipPath5126">
      <path
         inkscape:connector-curvature="0"
         d="M 0,0 222,0 222,61 0,61 0,0 z"
         id="path5128" />
    </clipPath>
    <clipPath
       clipPathUnits="userSpaceOnUse"
       id="clipPath5130">
      <path
         inkscape:connector-curvature="0"
         d="M 0,0 222,0 222,61 0,61 0,0 z"
         id="path5132" />
    </clipPath>
    <clipPath
       clipPathUnits="userSpaceOnUse"
       id="clipPath5134">
      <path
         inkscape:connector-curvature="0"
         d="M 0,0 222,0 222,61 0,61 0,0 z"
         id="path5136" />
    </clipPath>
    <clipPath
       clipPathUnits="userSpaceOnUse"
       id="clipPath5138">
      <path
         inkscape:connector-curvature="0"
         d="M 0,0 222,0 222,61 0,61 0,0 z"
         id="path5140" />
    </clipPath>
    <clipPath
       clipPathUnits="userSpaceOnUse"
       id="clipPath5142">
      <path
         inkscape:connector-curvature="0"
         d="M 0,0 222,0 222,61 0,61 0,0 z"
         id="path5144" />
    </clipPath>
    <clipPath
       clipPathUnits="userSpaceOnUse"
       id="clipPath5146">
      <path
         inkscape:connector-curvature="0"
         d="M 0,0 222,0 222,61 0,61 0,0 z"
         id="path5148" />
    </clipPath>
    <clipPath
       clipPathUnits="userSpaceOnUse"
       id="clipPath5150">
      <path
         inkscape:connector-curvature="0"
         d="M 0,0 222,0 222,61 0,61 0,0 z"
         id="path5152" />
    </clipPath>
    <clipPath
       clipPathUnits="userSpaceOnUse"
       id="clipPath5154">
      <path
         inkscape:connector-curvature="0"
         d="M 0,0 222,0 222,61 0,61 0,0 z"
         id="path5156" />
    </clipPath>
    <clipPath
       clipPathUnits="userSpaceOnUse"
       id="clipPath5158">
      <path
         inkscape:connector-curvature="0"
         d="M 0,0 222,0 222,61 0,61 0,0 z"
         id="path5160" />
    </clipPath>
    <clipPath
       clipPathUnits="userSpaceOnUse"
       id="clipPath5162">
      <path
         inkscape:connector-curvature="0"
         d="M 0,0 222,0 222,61 0,61 0,0 z"
         id="path5164" />
    </clipPath>
    <clipPath
       clipPathUnits="userSpaceOnUse"
       id="clipPath5166">
      <path
         inkscape:connector-curvature="0"
         d="M 0,0 222,0 222,61 0,61 0,0 z"
         id="path5168" />
    </clipPath>
    <clipPath
       clipPathUnits="userSpaceOnUse"
       id="clipPath5170">
      <path
         inkscape:connector-curvature="0"
         d="M 0,0 222,0 222,61 0,61 0,0 z"
         id="path5172" />
    </clipPath>
    <clipPath
       clipPathUnits="userSpaceOnUse"
       id="clipPath5174">
      <path
         inkscape:connector-curvature="0"
         d="M 0,0 222,0 222,61 0,61 0,0 z"
         id="path5176" />
    </clipPath>
    <clipPath
       clipPathUnits="userSpaceOnUse"
       id="clipPath5178">
      <path
         inkscape:connector-curvature="0"
         d="M 0,0 222,0 222,61 0,61 0,0 z"
         id="path5180" />
    </clipPath>
    <clipPath
       clipPathUnits="userSpaceOnUse"
       id="clipPath5182">
      <path
         inkscape:connector-curvature="0"
         d="M 0,0 222,0 222,61 0,61 0,0 z"
         id="path5184" />
    </clipPath>
    <clipPath
       clipPathUnits="userSpaceOnUse"
       id="clipPath5186">
      <path
         inkscape:connector-curvature="0"
         d="M 0,0 222,0 222,61 0,61 0,0 z"
         id="path5188" />
    </clipPath>
    <clipPath
       clipPathUnits="userSpaceOnUse"
       id="clipPath5190">
      <path
         inkscape:connector-curvature="0"
         d="M 0,0 222,0 222,61 0,61 0,0 z"
         id="path5192" />
    </clipPath>
    <clipPath
       clipPathUnits="userSpaceOnUse"
       id="clipPath5194">
      <path
         inkscape:connector-curvature="0"
         d="M 0,0 222,0 222,61 0,61 0,0 z"
         id="path5196" />
    </clipPath>
    <clipPath
       clipPathUnits="userSpaceOnUse"
       id="clipPath5198">
      <path
         inkscape:connector-curvature="0"
         d="M 0,0 222,0 222,61 0,61 0,0 z"
         id="path5200" />
    </clipPath>
    <clipPath
       clipPathUnits="userSpaceOnUse"
       id="clipPath5202">
      <path
         inkscape:connector-curvature="0"
         d="M 0,0 222,0 222,61 0,61 0,0 z"
         id="path5204" />
    </clipPath>
    <clipPath
       clipPathUnits="userSpaceOnUse"
       id="clipPath5206">
      <path
         inkscape:connector-curvature="0"
         d="M 0,0 222,0 222,61 0,61 0,0 z"
         id="path5208" />
    </clipPath>
    <clipPath
       clipPathUnits="userSpaceOnUse"
       id="clipPath5210">
      <path
         inkscape:connector-curvature="0"
         d="M 0,0 222,0 222,61 0,61 0,0 z"
         id="path5212" />
    </clipPath>
    <clipPath
       clipPathUnits="userSpaceOnUse"
       id="clipPath5214">
      <path
         inkscape:connector-curvature="0"
         d="M 0,0 222,0 222,61 0,61 0,0 z"
         id="path5216" />
    </clipPath>
    <clipPath
       clipPathUnits="userSpaceOnUse"
       id="clipPath5218">
      <path
         inkscape:connector-curvature="0"
         d="M 0,0 222,0 222,61 0,61 0,0 z"
         id="path5220" />
    </clipPath>
    <clipPath
       clipPathUnits="userSpaceOnUse"
       id="clipPath5222">
      <path
         inkscape:connector-curvature="0"
         d="M 0,0 222,0 222,61 0,61 0,0 z"
         id="path5224" />
    </clipPath>
    <clipPath
       clipPathUnits="userSpaceOnUse"
       id="clipPath5226">
      <path
         inkscape:connector-curvature="0"
         d="M 0,0 222,0 222,61 0,61 0,0 z"
         id="path5228" />
    </clipPath>
    <clipPath
       clipPathUnits="userSpaceOnUse"
       id="clipPath5230">
      <path
         inkscape:connector-curvature="0"
         d="M 0,0 222,0 222,61 0,61 0,0 z"
         id="path5232" />
    </clipPath>
    <clipPath
       clipPathUnits="userSpaceOnUse"
       id="clipPath5234">
      <path
         inkscape:connector-curvature="0"
         d="M 0,0 222,0 222,61 0,61 0,0 z"
         id="path5236" />
    </clipPath>
    <clipPath
       clipPathUnits="userSpaceOnUse"
       id="clipPath1-0">
      <path
         inkscape:connector-curvature="0"
         d="M 0,0 343,0 343,61 0,61 0,0 z"
         id="path5641" />
    </clipPath>
    <clipPath
       clipPathUnits="userSpaceOnUse"
       id="clipPath5759">
      <path
         inkscape:connector-curvature="0"
         d="M 0,0 343,0 343,61 0,61 0,0 z"
         id="path5761" />
    </clipPath>
    <clipPath
       clipPathUnits="userSpaceOnUse"
       id="clipPath5763">
      <path
         inkscape:connector-curvature="0"
         d="M 0,0 343,0 343,61 0,61 0,0 z"
         id="path5765" />
    </clipPath>
    <clipPath
       clipPathUnits="userSpaceOnUse"
       id="clipPath5767">
      <path
         inkscape:connector-curvature="0"
         d="M 0,0 343,0 343,61 0,61 0,0 z"
         id="path5769" />
    </clipPath>
    <clipPath
       clipPathUnits="userSpaceOnUse"
       id="clipPath5771">
      <path
         inkscape:connector-curvature="0"
         d="M 0,0 343,0 343,61 0,61 0,0 z"
         id="path5773" />
    </clipPath>
    <clipPath
       clipPathUnits="userSpaceOnUse"
       id="clipPath5775">
      <path
         inkscape:connector-curvature="0"
         d="M 0,0 343,0 343,61 0,61 0,0 z"
         id="path5777" />
    </clipPath>
    <clipPath
       clipPathUnits="userSpaceOnUse"
       id="clipPath5779">
      <path
         inkscape:connector-curvature="0"
         d="M 0,0 343,0 343,61 0,61 0,0 z"
         id="path5781" />
    </clipPath>
    <clipPath
       clipPathUnits="userSpaceOnUse"
       id="clipPath5783">
      <path
         inkscape:connector-curvature="0"
         d="M 0,0 343,0 343,61 0,61 0,0 z"
         id="path5785" />
    </clipPath>
    <clipPath
       clipPathUnits="userSpaceOnUse"
       id="clipPath5787">
      <path
         inkscape:connector-curvature="0"
         d="M 0,0 343,0 343,61 0,61 0,0 z"
         id="path5789" />
    </clipPath>
    <clipPath
       clipPathUnits="userSpaceOnUse"
       id="clipPath5791">
      <path
         inkscape:connector-curvature="0"
         d="M 0,0 343,0 343,61 0,61 0,0 z"
         id="path5793" />
    </clipPath>
    <clipPath
       clipPathUnits="userSpaceOnUse"
       id="clipPath5795">
      <path
         inkscape:connector-curvature="0"
         d="M 0,0 343,0 343,61 0,61 0,0 z"
         id="path5797" />
    </clipPath>
    <clipPath
       clipPathUnits="userSpaceOnUse"
       id="clipPath5799">
      <path
         inkscape:connector-curvature="0"
         d="M 0,0 343,0 343,61 0,61 0,0 z"
         id="path5801" />
    </clipPath>
    <clipPath
       clipPathUnits="userSpaceOnUse"
       id="clipPath5803">
      <path
         inkscape:connector-curvature="0"
         d="M 0,0 343,0 343,61 0,61 0,0 z"
         id="path5805" />
    </clipPath>
    <clipPath
       clipPathUnits="userSpaceOnUse"
       id="clipPath5807">
      <path
         inkscape:connector-curvature="0"
         d="M 0,0 343,0 343,61 0,61 0,0 z"
         id="path5809" />
    </clipPath>
    <clipPath
       clipPathUnits="userSpaceOnUse"
       id="clipPath5811">
      <path
         inkscape:connector-curvature="0"
         d="M 0,0 343,0 343,61 0,61 0,0 z"
         id="path5813" />
    </clipPath>
    <clipPath
       clipPathUnits="userSpaceOnUse"
       id="clipPath5815">
      <path
         inkscape:connector-curvature="0"
         d="M 0,0 343,0 343,61 0,61 0,0 z"
         id="path5817" />
    </clipPath>
    <clipPath
       clipPathUnits="userSpaceOnUse"
       id="clipPath5819">
      <path
         inkscape:connector-curvature="0"
         d="M 0,0 343,0 343,61 0,61 0,0 z"
         id="path5821" />
    </clipPath>
    <clipPath
       clipPathUnits="userSpaceOnUse"
       id="clipPath5823">
      <path
         inkscape:connector-curvature="0"
         d="M 0,0 343,0 343,61 0,61 0,0 z"
         id="path5825" />
    </clipPath>
    <clipPath
       clipPathUnits="userSpaceOnUse"
       id="clipPath5827">
      <path
         inkscape:connector-curvature="0"
         d="M 0,0 343,0 343,61 0,61 0,0 z"
         id="path5829" />
    </clipPath>
    <clipPath
       clipPathUnits="userSpaceOnUse"
       id="clipPath5831">
      <path
         inkscape:connector-curvature="0"
         d="M 0,0 343,0 343,61 0,61 0,0 z"
         id="path5833" />
    </clipPath>
    <clipPath
       clipPathUnits="userSpaceOnUse"
       id="clipPath5835">
      <path
         inkscape:connector-curvature="0"
         d="M 0,0 343,0 343,61 0,61 0,0 z"
         id="path5837" />
    </clipPath>
    <clipPath
       clipPathUnits="userSpaceOnUse"
       id="clipPath5839">
      <path
         inkscape:connector-curvature="0"
         d="M 0,0 343,0 343,61 0,61 0,0 z"
         id="path5841" />
    </clipPath>
    <clipPath
       clipPathUnits="userSpaceOnUse"
       id="clipPath5843">
      <path
         inkscape:connector-curvature="0"
         d="M 0,0 343,0 343,61 0,61 0,0 z"
         id="path5845" />
    </clipPath>
    <clipPath
       clipPathUnits="userSpaceOnUse"
       id="clipPath5847">
      <path
         inkscape:connector-curvature="0"
         d="M 0,0 343,0 343,61 0,61 0,0 z"
         id="path5849" />
    </clipPath>
    <clipPath
       clipPathUnits="userSpaceOnUse"
       id="clipPath5851">
      <path
         inkscape:connector-curvature="0"
         d="M 0,0 343,0 343,61 0,61 0,0 z"
         id="path5853" />
    </clipPath>
    <clipPath
       clipPathUnits="userSpaceOnUse"
       id="clipPath5855">
      <path
         inkscape:connector-curvature="0"
         d="M 0,0 343,0 343,61 0,61 0,0 z"
         id="path5857" />
    </clipPath>
    <clipPath
       clipPathUnits="userSpaceOnUse"
       id="clipPath5859">
      <path
         inkscape:connector-curvature="0"
         d="M 0,0 343,0 343,61 0,61 0,0 z"
         id="path5861" />
    </clipPath>
    <clipPath
       clipPathUnits="userSpaceOnUse"
       id="clipPath5863">
      <path
         inkscape:connector-curvature="0"
         d="M 0,0 343,0 343,61 0,61 0,0 z"
         id="path5865" />
    </clipPath>
    <clipPath
       clipPathUnits="userSpaceOnUse"
       id="clipPath5867">
      <path
         inkscape:connector-curvature="0"
         d="M 0,0 343,0 343,61 0,61 0,0 z"
         id="path5869" />
    </clipPath>
    <clipPath
       clipPathUnits="userSpaceOnUse"
       id="clipPath5871">
      <path
         inkscape:connector-curvature="0"
         d="M 0,0 343,0 343,61 0,61 0,0 z"
         id="path5873" />
    </clipPath>
    <clipPath
       clipPathUnits="userSpaceOnUse"
       id="clipPath5875">
      <path
         inkscape:connector-curvature="0"
         d="M 0,0 343,0 343,61 0,61 0,0 z"
         id="path5877" />
    </clipPath>
    <clipPath
       clipPathUnits="userSpaceOnUse"
       id="clipPath5879">
      <path
         inkscape:connector-curvature="0"
         d="M 0,0 343,0 343,61 0,61 0,0 z"
         id="path5881" />
    </clipPath>
    <clipPath
       clipPathUnits="userSpaceOnUse"
       id="clipPath5883">
      <path
         inkscape:connector-curvature="0"
         d="M 0,0 343,0 343,61 0,61 0,0 z"
         id="path5885" />
    </clipPath>
    <clipPath
       clipPathUnits="userSpaceOnUse"
       id="clipPath5887">
      <path
         inkscape:connector-curvature="0"
         d="M 0,0 343,0 343,61 0,61 0,0 z"
         id="path5889" />
    </clipPath>
    <clipPath
       clipPathUnits="userSpaceOnUse"
       id="clipPath5891">
      <path
         inkscape:connector-curvature="0"
         d="M 0,0 343,0 343,61 0,61 0,0 z"
         id="path5893" />
    </clipPath>
    <clipPath
       clipPathUnits="userSpaceOnUse"
       id="clipPath5895">
      <path
         inkscape:connector-curvature="0"
         d="M 0,0 343,0 343,61 0,61 0,0 z"
         id="path5897" />
    </clipPath>
    <clipPath
       clipPathUnits="userSpaceOnUse"
       id="clipPath5899">
      <path
         inkscape:connector-curvature="0"
         d="M 0,0 343,0 343,61 0,61 0,0 z"
         id="path5901" />
    </clipPath>
    <clipPath
       clipPathUnits="userSpaceOnUse"
       id="clipPath5903">
      <path
         inkscape:connector-curvature="0"
         d="M 0,0 343,0 343,61 0,61 0,0 z"
         id="path5905" />
    </clipPath>
    <clipPath
       clipPathUnits="userSpaceOnUse"
       id="clipPath5907">
      <path
         inkscape:connector-curvature="0"
         d="M 0,0 343,0 343,61 0,61 0,0 z"
         id="path5909" />
    </clipPath>
    <clipPath
       clipPathUnits="userSpaceOnUse"
       id="clipPath5911">
      <path
         inkscape:connector-curvature="0"
         d="M 0,0 343,0 343,61 0,61 0,0 z"
         id="path5913" />
    </clipPath>
    <clipPath
       clipPathUnits="userSpaceOnUse"
       id="clipPath5915">
      <path
         inkscape:connector-curvature="0"
         d="M 0,0 343,0 343,61 0,61 0,0 z"
         id="path5917" />
    </clipPath>
    <clipPath
       clipPathUnits="userSpaceOnUse"
       id="clipPath5919">
      <path
         inkscape:connector-curvature="0"
         d="M 0,0 343,0 343,61 0,61 0,0 z"
         id="path5921" />
    </clipPath>
    <clipPath
       clipPathUnits="userSpaceOnUse"
       id="clipPath5923">
      <path
         inkscape:connector-curvature="0"
         d="M 0,0 343,0 343,61 0,61 0,0 z"
         id="path5925" />
    </clipPath>
    <clipPath
       clipPathUnits="userSpaceOnUse"
       id="clipPath5927">
      <path
         inkscape:connector-curvature="0"
         d="M 0,0 343,0 343,61 0,61 0,0 z"
         id="path5929" />
    </clipPath>
    <clipPath
       clipPathUnits="userSpaceOnUse"
       id="clipPath5931">
      <path
         inkscape:connector-curvature="0"
         d="M 0,0 343,0 343,61 0,61 0,0 z"
         id="path5933" />
    </clipPath>
    <clipPath
       clipPathUnits="userSpaceOnUse"
       id="clipPath5935">
      <path
         inkscape:connector-curvature="0"
         d="M 0,0 343,0 343,61 0,61 0,0 z"
         id="path5937" />
    </clipPath>
  </defs>
  <g
     id="g5"
     transform="translate(47,68.5)">
    <defs
       id="defs1">
      <clipPath
         clipPathUnits="userSpaceOnUse"
         id="clipPath1">
        <path
           d="M 0,0 488,0 488,266 0,266 0,0 z"
           id="path9"
           inkscape:connector-curvature="0" />
      </clipPath>
    </defs>
    <text
       sodipodi:linespacing="100%"
       id="text3243"
       y="12.297493"
       x="36.228516"
       style="font-size:40px;font-style:normal;font-variant:normal;font-weight:normal;font-stretch:normal;line-height:100%;letter-spacing:0px;word-spacing:0px;fill:#000000;fill-opacity:1;stroke:none;font-family:Arial;-inkscape-font-specification:Arial"
       xml:space="preserve"><tspan
         style="font-size:12px;font-style:normal;font-variant:normal;font-weight:normal;font-stretch:normal;font-family:Arial;-inkscape-font-specification:Arial"
         y="12.297493"
         x="36.228516"
         id="tspan3245"
         sodipodi:role="line">C8:2(2.t4)</tspan></text>
    <g
       transform="translate(-49,-71.5)"
       id="g5024">
      <defs
         id="defs1-4">
        <clipPath
           clipPathUnits="userSpaceOnUse"
           id="clipPath5240">
          <path
             inkscape:connector-curvature="0"
             d="M 0,0 222,0 222,61 0,61 0,0 z"
             id="path5242" />
        </clipPath>
      </defs>
      <g
         style="font-size:9px;stroke-width:1.16778195;stroke-linecap:round;stroke-linejoin:bevel;font-family:Arial"
         font-size="9"
         text-rendering="optimizeLegibility"
         shape-rendering="geometricPrecision"
         id="g5030">
        <line
           style="fill:none"
           clip-path="url(#clipPath1-6)"
           x1="162.01184"
           x2="186.34694"
           y1="49.818581"
           y2="35.768703"
           id="line5032" />
        <line
           style="fill:none"
           clip-path="url(#clipPath1-6)"
           x1="162.01184"
           x2="137.67674"
           y1="49.818581"
           y2="35.768703"
           id="line5034" />
        <line
           style="fill:none"
           clip-path="url(#clipPath1-6)"
           x1="162.01184"
           x2="142.7347"
           y1="43.978157"
           y2="32.848492"
           id="line5036" />
        <line
           style="fill:none"
           clip-path="url(#clipPath1-6)"
           x1="113.34164"
           x2="137.67674"
           y1="49.818581"
           y2="35.768703"
           id="line5038" />
        <line
           style="fill:none"
           clip-path="url(#clipPath1-6)"
           x1="113.34164"
           x2="89.006546"
           y1="49.818581"
           y2="35.768703"
           id="line5040" />
        <line
           style="fill:none"
           clip-path="url(#clipPath1-6)"
           x1="113.34164"
           x2="94.064499"
           y1="43.978157"
           y2="32.848492"
           id="line5042" />
        <line
           style="fill:none"
           clip-path="url(#clipPath1-6)"
           x1="89.006546"
           x2="64.671448"
           y1="35.768703"
           y2="49.818581"
           id="line5044" />
        <line
           style="fill:none"
           clip-path="url(#clipPath1-6)"
           x1="64.671448"
           x2="40.336346"
           y1="49.818581"
           y2="35.768703"
           id="line5046" />
        <line
           style="fill:none"
           clip-path="url(#clipPath1-6)"
           x1="40.336346"
           x2="21.5126"
           y1="35.768703"
           y2="46.6366"
           id="line5048" />
        <line
           style="fill:none"
           clip-path="url(#clipPath1-6)"
           x1="183.81796"
           x2="183.81796"
           y1="37.228809"
           y2="25.630861"
           id="line5050" />
        <line
           style="fill:none"
           clip-path="url(#clipPath1-6)"
           x1="188.87592"
           x2="188.87592"
           y1="37.228809"
           y2="25.630861"
           id="line5052" />
        <line
           style="fill:none;stroke:#ff0000"
           clip-path="url(#clipPath1-6)"
           x1="183.81796"
           x2="183.81796"
           y1="25.630861"
           y2="14.032912"
           id="line5054" />
        <line
           style="fill:none;stroke:#ff0000"
           clip-path="url(#clipPath1-6)"
           x1="188.87592"
           x2="188.87592"
           y1="25.630861"
           y2="14.032912"
           id="line5056" />
        <line
           style="fill:none"
           clip-path="url(#clipPath1-6)"
           x1="186.34694"
           x2="195.75882"
           y1="35.768703"
           y2="41.202652"
           id="line5058" />
        <line
           style="fill:none;stroke:#ff0000"
           clip-path="url(#clipPath1-6)"
           x1="195.75882"
           x2="205.17068"
           y1="41.202652"
           y2="46.6366"
           id="line5060" />
      </g>
      <g
         style="font-size:7px;fill:#ff0000;stroke:#ff0000;font-family:Arial"
         font-size="7"
         text-rendering="optimizeLegibility"
         shape-rendering="geometricPrecision"
         id="g5062">
        <text
           style="stroke:none"
           xml:space="preserve"
           x="191"
           y="31"
           clip-path="url(#clipPath1-6)"
           id="text5064">       </text>
        <text
           style="stroke:none"
           xml:space="preserve"
           x="163"
           y="43"
           clip-path="url(#clipPath1-6)"
           id="text5066">       </text>
        <text
           style="stroke:none"
           xml:space="preserve"
           x="142"
           y="31"
           clip-path="url(#clipPath1-6)"
           id="text5068">       </text>
        <text
           style="stroke:none"
           xml:space="preserve"
           x="114"
           y="43"
           clip-path="url(#clipPath1-6)"
           id="text5070">       </text>
        <text
           style="stroke:none"
           xml:space="preserve"
           x="94"
           y="31"
           clip-path="url(#clipPath1-6)"
           id="text5072">       </text>
        <text
           style="stroke:none"
           xml:space="preserve"
           x="66"
           y="43"
           clip-path="url(#clipPath1-6)"
           id="text5074">       </text>
        <text
           style="stroke:none"
           xml:space="preserve"
           x="45"
           y="31"
           clip-path="url(#clipPath1-6)"
           id="text5076">       </text>
        <rect
           style="font-size:9px;fill:#ffffff;stroke:none"
           font-size="9"
           x="2"
           y="45"
           clip-path="url(#clipPath1-6)"
           width="7"
           rx="2.5"
           ry="3"
           height="11"
           id="rect5078" />
        <rect
           style="font-size:9px;fill:#ffffff;stroke:none"
           font-size="9"
           x="9"
           y="50"
           clip-path="url(#clipPath1-6)"
           width="4"
           rx="1.5"
           ry="2.5"
           height="9"
           id="rect5080" />
        <rect
           style="font-size:9px;fill:#ffffff;stroke:none"
           font-size="9"
           x="13"
           y="45"
           clip-path="url(#clipPath1-6)"
           width="7"
           rx="2.5"
           ry="3"
           height="11"
           id="rect5082" />
        <text
           style="font-size:9px;fill:#000000;stroke:none"
           font-size="9"
           x="2"
           y="54"
           clip-path="url(#clipPath1-6)"
           xml:space="preserve"
           id="text5084">H       </text>
        <text
           style="fill:#000000;stroke:none"
           x="9"
           y="57"
           clip-path="url(#clipPath1-6)"
           xml:space="preserve"
           id="text5086">3       </text>
        <text
           style="font-size:9px;fill:#000000;stroke:none"
           font-size="9"
           x="13"
           y="54"
           clip-path="url(#clipPath1-6)"
           xml:space="preserve"
           id="text5088">C       </text>
        <rect
           style="font-size:9px;fill:#ffffff;stroke:none"
           font-size="9"
           x="183"
           y="3"
           clip-path="url(#clipPath1-6)"
           width="7"
           rx="2.5"
           ry="3"
           height="11"
           id="rect5090" />
        <text
           style="font-size:9px;stroke:none"
           font-size="9"
           x="183"
           y="12"
           clip-path="url(#clipPath1-6)"
           xml:space="preserve"
           id="text5092">O       </text>
        <rect
           style="font-size:9px;fill:#ffffff;stroke:none"
           font-size="9"
           x="207"
           y="45"
           clip-path="url(#clipPath1-6)"
           width="15"
           rx="5"
           ry="3"
           height="11"
           id="rect5094" />
        <text
           style="font-size:9px;stroke:none"
           font-size="9"
           x="207"
           y="54"
           clip-path="url(#clipPath1-6)"
           xml:space="preserve"
           id="text5096">OH       </text>
      </g>
    </g>
    <text
       xml:space="preserve"
       style="font-size:40px;font-style:normal;font-variant:normal;font-weight:normal;font-stretch:normal;line-height:100%;letter-spacing:0px;word-spacing:0px;fill:#000000;fill-opacity:1;stroke:none;font-family:Arial;-inkscape-font-specification:Arial"
       x="334.54102"
       y="12.297493"
       id="text5743"
       sodipodi:linespacing="100%"><tspan
         sodipodi:role="line"
         id="tspan5745"
         x="334.54102"
         y="12.297493"
         style="font-size:12px;font-style:normal;font-variant:normal;font-weight:normal;font-stretch:normal;font-family:Arial;-inkscape-font-specification:Arial">C13:0-NH2(3)</tspan></text>
    <g
       id="g6272"
       transform="translate(14,-258.5)">
      <g
         transform="translate(186,187)"
         id="g5643"
         shape-rendering="geometricPrecision"
         text-rendering="optimizeLegibility"
         font-size="9"
         style="font-size:9px;stroke-width:1.16548669;stroke-linecap:round;stroke-linejoin:bevel;font-family:Arial">
        <line
           id="line5645"
           y2="7.7138257"
           y1="21.736086"
           x2="283.12976"
           x1="307.41702"
           clip-path="url(#clipPath1-0)"
           style="fill:none" />
        <line
           id="line5647"
           y2="21.736086"
           y1="7.7138257"
           x2="258.8425"
           x1="283.12976"
           clip-path="url(#clipPath1-0)"
           style="fill:none" />
        <line
           id="line5649"
           y2="7.7138257"
           y1="21.736086"
           x2="234.55522"
           x1="258.8425"
           clip-path="url(#clipPath1-0)"
           style="fill:none" />
        <line
           id="line5651"
           y2="21.736086"
           y1="7.7138257"
           x2="210.26794"
           x1="234.55522"
           clip-path="url(#clipPath1-0)"
           style="fill:none" />
        <line
           id="line5653"
           y2="7.7138257"
           y1="21.736086"
           x2="185.98068"
           x1="210.26794"
           clip-path="url(#clipPath1-0)"
           style="fill:none" />
        <line
           id="line5655"
           y2="21.736086"
           y1="7.7138257"
           x2="161.69341"
           x1="185.98068"
           clip-path="url(#clipPath1-0)"
           style="fill:none" />
        <line
           id="line5657"
           y2="7.7138257"
           y1="21.736086"
           x2="137.40614"
           x1="161.69341"
           clip-path="url(#clipPath1-0)"
           style="fill:none" />
        <line
           id="line5659"
           y2="21.736086"
           y1="7.7138257"
           x2="113.11887"
           x1="137.40614"
           clip-path="url(#clipPath1-0)"
           style="fill:none" />
        <line
           id="line5661"
           y2="7.7138257"
           y1="21.736086"
           x2="88.831604"
           x1="113.11887"
           clip-path="url(#clipPath1-0)"
           style="fill:none" />
        <line
           id="line5663"
           y2="21.736086"
           y1="7.7138257"
           x2="64.544334"
           x1="88.831604"
           clip-path="url(#clipPath1-0)"
           style="fill:none" />
        <line
           id="line5665"
           y2="7.7138257"
           y1="21.736086"
           x2="40.257065"
           x1="64.544334"
           clip-path="url(#clipPath1-0)"
           style="fill:none" />
        <line
           id="line5667"
           y2="18.554106"
           y1="7.7138257"
           x2="21.48115"
           x1="40.257065"
           clip-path="url(#clipPath1-0)"
           style="fill:none" />
        <line
           id="line5669"
           y2="32.576366"
           y1="21.736086"
           x2="258.8425"
           x1="258.8425"
           clip-path="url(#clipPath1-0)"
           style="fill:none" />
        <line
           id="line5671"
           y2="43.416649"
           y1="32.576366"
           x2="258.8425"
           x1="258.8425"
           clip-path="url(#clipPath1-0)"
           style="fill:none;stroke:#333399" />
        <line
           id="line5673"
           y2="16.315947"
           y1="21.736086"
           x2="316.80499"
           x1="307.41702"
           clip-path="url(#clipPath1-0)"
           style="fill:none" />
        <line
           id="line5675"
           y2="10.895806"
           y1="16.315947"
           x2="326.19293"
           x1="316.80499"
           clip-path="url(#clipPath1-0)"
           style="fill:none;stroke:#ff0000" />
        <line
           id="line5677"
           y2="31.84775"
           y1="20.278851"
           x2="309.94104"
           x1="309.94104"
           clip-path="url(#clipPath1-0)"
           style="fill:none" />
        <line
           id="line5679"
           y2="31.84775"
           y1="20.278851"
           x2="304.89301"
           x1="304.89301"
           clip-path="url(#clipPath1-0)"
           style="fill:none" />
        <line
           id="line5681"
           y2="43.416649"
           y1="31.84775"
           x2="309.94104"
           x1="309.94104"
           clip-path="url(#clipPath1-0)"
           style="fill:none;stroke:#ff0000" />
        <line
           id="line5683"
           y2="43.416649"
           y1="31.84775"
           x2="304.89301"
           x1="304.89301"
           clip-path="url(#clipPath1-0)"
           style="fill:none;stroke:#ff0000" />
      </g>
      <g
         transform="translate(186,187)"
         id="g5685"
         shape-rendering="geometricPrecision"
         text-rendering="optimizeLegibility"
         font-size="7"
         style="font-size:7px;fill:#ff0000;stroke:#ff0000;font-family:Arial">
        <text
           id="text5687"
           clip-path="url(#clipPath1-0)"
           y="15"
           x="308"
           xml:space="preserve"
           style="stroke:none">       </text>
        <text
           id="text5689"
           clip-path="url(#clipPath1-0)"
           y="3"
           x="288"
           xml:space="preserve"
           style="stroke:none">       </text>
        <text
           id="text5691"
           clip-path="url(#clipPath1-0)"
           y="15"
           x="260"
           xml:space="preserve"
           style="stroke:none">       </text>
        <text
           id="text5693"
           clip-path="url(#clipPath1-0)"
           y="3"
           x="239"
           xml:space="preserve"
           style="stroke:none">       </text>
        <text
           id="text5695"
           clip-path="url(#clipPath1-0)"
           y="15"
           x="211"
           xml:space="preserve"
           style="stroke:none">       </text>
        <text
           id="text5697"
           clip-path="url(#clipPath1-0)"
           y="3"
           x="191"
           xml:space="preserve"
           style="stroke:none">       </text>
        <text
           id="text5699"
           clip-path="url(#clipPath1-0)"
           y="15"
           x="163"
           xml:space="preserve"
           style="stroke:none">       </text>
        <text
           id="text5701"
           clip-path="url(#clipPath1-0)"
           y="3"
           x="142"
           xml:space="preserve"
           style="stroke:none">       </text>
        <text
           id="text5703"
           clip-path="url(#clipPath1-0)"
           y="15"
           x="114"
           xml:space="preserve"
           style="stroke:none">       </text>
        <text
           id="text5705"
           clip-path="url(#clipPath1-0)"
           y="3"
           x="94"
           xml:space="preserve"
           style="stroke:none">       </text>
        <text
           id="text5707"
           clip-path="url(#clipPath1-0)"
           y="15"
           x="65"
           xml:space="preserve"
           style="stroke:none">       </text>
        <text
           id="text5709"
           clip-path="url(#clipPath1-0)"
           y="3"
           x="45"
           xml:space="preserve"
           style="stroke:none">       </text>
        <rect
           id="rect5711"
           height="11"
           ry="3"
           rx="2.5"
           width="7"
           clip-path="url(#clipPath1-0)"
           y="17"
           x="1"
           font-size="9"
           style="font-size:9px;fill:#ffffff;stroke:none" />
        <rect
           id="rect5713"
           height="9"
           ry="2.5"
           rx="1.5"
           width="4"
           clip-path="url(#clipPath1-0)"
           y="22"
           x="8"
           font-size="9"
           style="font-size:9px;fill:#ffffff;stroke:none" />
        <rect
           id="rect5715"
           height="11"
           ry="3"
           rx="2.5"
           width="7"
           clip-path="url(#clipPath1-0)"
           y="17"
           x="12"
           font-size="9"
           style="font-size:9px;fill:#ffffff;stroke:none" />
        <text
           id="text5717"
           xml:space="preserve"
           clip-path="url(#clipPath1-0)"
           y="26"
           x="1"
           font-size="9"
           style="font-size:9px;fill:#000000;stroke:none">H       </text>
        <text
           id="text5719"
           xml:space="preserve"
           clip-path="url(#clipPath1-0)"
           y="29"
           x="8"
           style="fill:#000000;stroke:none">3       </text>
        <text
           id="text5721"
           xml:space="preserve"
           clip-path="url(#clipPath1-0)"
           y="26"
           x="12"
           font-size="9"
           style="font-size:9px;fill:#000000;stroke:none">C       </text>
        <rect
           id="rect5723"
           height="11"
           ry="3"
           rx="5"
           width="15"
           clip-path="url(#clipPath1-0)"
           y="45"
           x="255"
           font-size="9"
           style="font-size:9px;fill:#ffffff;stroke:none" />
        <rect
           id="rect5725"
           height="9"
           ry="2.5"
           rx="1.5"
           width="4"
           clip-path="url(#clipPath1-0)"
           y="50"
           x="269"
           font-size="9"
           style="font-size:9px;fill:#ffffff;stroke:none" />
        <text
           id="text5727"
           xml:space="preserve"
           clip-path="url(#clipPath1-0)"
           y="54"
           x="255"
           font-size="9"
           style="font-size:9px;fill:#333399;stroke:none">NH       </text>
        <text
           id="text5729"
           xml:space="preserve"
           clip-path="url(#clipPath1-0)"
           y="57"
           x="269"
           style="fill:#333399;stroke:none">2       </text>
        <rect
           id="rect5731"
           height="11"
           ry="3"
           rx="5"
           width="15"
           clip-path="url(#clipPath1-0)"
           y="3"
           x="328"
           style="fill:#ffffff;stroke:none" />
        <text
           id="text5733"
           xml:space="preserve"
           clip-path="url(#clipPath1-0)"
           y="12"
           x="328"
           font-size="9"
           style="font-size:9px;stroke:none">OH       </text>
        <rect
           id="rect5735"
           height="11"
           ry="3"
           rx="2.5"
           width="7"
           clip-path="url(#clipPath1-0)"
           y="45"
           x="304"
           font-size="9"
           style="font-size:9px;fill:#ffffff;stroke:none" />
        <text
           id="text5737"
           xml:space="preserve"
           clip-path="url(#clipPath1-0)"
           y="54"
           x="304"
           font-size="9"
           style="font-size:9px;stroke:none">O       </text>
      </g>
    </g>
  </g>
</svg>
