<?xml version="1.0" encoding="UTF-8" standalone="no"?>
<svg width="232.304mm" height="142.346mm"
 xmlns="http://www.w3.org/2000/svg" xmlns:xlink="http://www.w3.org/1999/xlink"  version="1.2" baseProfile="tiny">
<title>Qt Svg Document</title>
<desc>Generated with Qt</desc>
<defs>
</defs>
<g fill="none" stroke="black" stroke-width="1" fill-rule="evenodd" stroke-linecap="square" stroke-linejoin="bevel" >

<g fill="#ffffff" fill-opacity="1" stroke="none" transform="matrix(1,0,0,1,0,0)"
font-family="Ubuntu" font-size="14.6667" font-weight="400" font-style="normal" 
>
<path vector-effect="non-scaling-stroke" fill-rule="evenodd" d="M5,5 L871,5 L871,528 L5,528 L5,5"/>
</g>

<g fill="none" stroke="none" transform="matrix(1,0,0,1,0,0)"
font-family="Ubuntu" font-size="14.6667" font-weight="400" font-style="normal" 
>
<path vector-effect="non-scaling-stroke" fill-rule="evenodd" d="M5,5 L871,5 L871,528 L5,528 L5,5"/>
</g>

<g fill="none" stroke="#000000" stroke-opacity="1" stroke-width="1" stroke-linecap="square" stroke-linejoin="bevel" transform="matrix(1,0,0,1,0,0)"
font-family="Ubuntu" font-size="14.6667" font-weight="400" font-style="normal" 
>
</g>

<g fill="#ffffff" fill-opacity="1" stroke="none" transform="matrix(1,0,0,1,0,0)"
font-family="Ubuntu" font-size="14.6667" font-weight="400" font-style="normal" 
>
<path vector-effect="non-scaling-stroke" fill-rule="evenodd" d="M113,5 L870,5 L870,365 L113,365 L113,5"/>
</g>

<g fill="none" stroke="#000000" stroke-opacity="1" stroke-width="1" stroke-linecap="square" stroke-linejoin="bevel" transform="matrix(1,0,0,1,0,0)"
font-family="Ubuntu" font-size="14.6667" font-weight="400" font-style="normal" 
>
</g>

<g fill="none" stroke="#000000" stroke-opacity="1" stroke-width="1" stroke-linecap="square" stroke-linejoin="bevel" transform="matrix(1,0,0,1,0,0)"
font-family="Ubuntu" font-size="14.6667" font-weight="400" font-style="normal" 
>
</g>

<g fill="none" stroke="#000000" stroke-opacity="1" stroke-width="1" stroke-linecap="square" stroke-linejoin="bevel" transform="matrix(1,0,0,1,0,0)"
font-family="Ubuntu" font-size="14.6667" font-weight="400" font-style="normal" 
>
</g>

<g fill="none" stroke="#c0c0c0" stroke-opacity="1" stroke-width="0.5" stroke-linecap="square" stroke-linejoin="bevel" transform="matrix(1,0,0,1,0,0)"
font-family="Ubuntu" font-size="14.6667" font-weight="400" font-style="normal" 
>
<polyline fill="none" vector-effect="none" points="113,296 869,296 " />
<polyline fill="none" vector-effect="none" points="113,228 869,228 " />
<polyline fill="none" vector-effect="none" points="113,159 869,159 " />
<polyline fill="none" vector-effect="none" points="113,91 869,91 " />
<polyline fill="none" vector-effect="none" points="113,22 869,22 " />
</g>

<g fill="none" stroke="#000000" stroke-opacity="1" stroke-width="1" stroke-linecap="square" stroke-linejoin="bevel" transform="matrix(1,0,0,1,0,0)"
font-family="Ubuntu" font-size="14.6667" font-weight="400" font-style="normal" 
>
</g>

<g fill="none" stroke="#000000" stroke-opacity="1" stroke-width="1" stroke-linecap="square" stroke-linejoin="bevel" transform="matrix(1,0,0,1,0,0)"
font-family="Ubuntu" font-size="14.6667" font-weight="400" font-style="normal" 
>
</g>

<g fill="#66cc66" fill-opacity="1" stroke="#66cc66" stroke-opacity="1" stroke-width="1" stroke-linecap="square" stroke-linejoin="miter" stroke-miterlimit="2" transform="matrix(1,0,0,1,0,0)"
font-family="Ubuntu" font-size="14.6667" font-weight="400" font-style="normal" 
>
<path vector-effect="non-scaling-stroke" fill-rule="evenodd" d="M113,14.9429 L135.43,14.9429 L135.43,366 L113,366 L113,14.9429"/>
<path vector-effect="non-scaling-stroke" fill-rule="evenodd" d="M141.037,164.086 L163.467,164.086 L163.467,366 L141.037,366 L141.037,164.086"/>
<path vector-effect="non-scaling-stroke" fill-rule="evenodd" d="M169.074,164.429 L191.504,164.429 L191.504,366 L169.074,366 L169.074,164.429"/>
<path vector-effect="non-scaling-stroke" fill-rule="evenodd" d="M197.111,194.6 L219.541,194.6 L219.541,366 L197.111,366 L197.111,194.6"/>
<path vector-effect="non-scaling-stroke" fill-rule="evenodd" d="M225.148,207.286 L247.578,207.286 L247.578,366 L225.148,366 L225.148,207.286"/>
<path vector-effect="non-scaling-stroke" fill-rule="evenodd" d="M253.185,216.2 L275.615,216.2 L275.615,366 L253.185,366 L253.185,216.2"/>
<path vector-effect="non-scaling-stroke" fill-rule="evenodd" d="M281.222,242.943 L303.652,242.943 L303.652,366 L281.222,366 L281.222,242.943"/>
<path vector-effect="non-scaling-stroke" fill-rule="evenodd" d="M309.259,261.8 L331.689,261.8 L331.689,366 L309.259,366 L309.259,261.8"/>
<path vector-effect="non-scaling-stroke" fill-rule="evenodd" d="M337.296,264.543 L359.726,264.543 L359.726,366 L337.296,366 L337.296,264.543"/>
<path vector-effect="non-scaling-stroke" fill-rule="evenodd" d="M365.333,276.2 L387.763,276.2 L387.763,366 L365.333,366 L365.333,276.2"/>
<path vector-effect="non-scaling-stroke" fill-rule="evenodd" d="M393.37,280.314 L415.8,280.314 L415.8,366 L393.37,366 L393.37,280.314"/>
<path vector-effect="non-scaling-stroke" fill-rule="evenodd" d="M421.407,296.086 L443.837,296.086 L443.837,366 L421.407,366 L421.407,296.086"/>
<path vector-effect="non-scaling-stroke" fill-rule="evenodd" d="M449.444,297.114 L471.874,297.114 L471.874,366 L449.444,366 L449.444,297.114"/>
<path vector-effect="non-scaling-stroke" fill-rule="evenodd" d="M477.481,304.314 L499.911,304.314 L499.911,366 L477.481,366 L477.481,304.314"/>
<path vector-effect="non-scaling-stroke" fill-rule="evenodd" d="M505.519,306.371 L527.948,306.371 L527.948,366 L505.519,366 L505.519,306.371"/>
<path vector-effect="non-scaling-stroke" fill-rule="evenodd" d="M533.556,307.4 L555.985,307.4 L555.985,366 L533.556,366 L533.556,307.4"/>
<path vector-effect="non-scaling-stroke" fill-rule="evenodd" d="M561.593,307.743 L584.022,307.743 L584.022,366 L561.593,366 L561.593,307.743"/>
<path vector-effect="non-scaling-stroke" fill-rule="evenodd" d="M589.63,309.8 L612.059,309.8 L612.059,366 L589.63,366 L589.63,309.8"/>
<path vector-effect="non-scaling-stroke" fill-rule="evenodd" d="M617.667,315.629 L640.096,315.629 L640.096,366 L617.667,366 L617.667,315.629"/>
<path vector-effect="non-scaling-stroke" fill-rule="evenodd" d="M645.704,317 L668.133,317 L668.133,366 L645.704,366 L645.704,317"/>
<path vector-effect="non-scaling-stroke" fill-rule="evenodd" d="M673.741,317 L696.17,317 L696.17,366 L673.741,366 L673.741,317"/>
<path vector-effect="non-scaling-stroke" fill-rule="evenodd" d="M701.778,319.4 L724.207,319.4 L724.207,366 L701.778,366 L701.778,319.4"/>
<path vector-effect="non-scaling-stroke" fill-rule="evenodd" d="M729.815,324.886 L752.244,324.886 L752.244,366 L729.815,366 L729.815,324.886"/>
<path vector-effect="non-scaling-stroke" fill-rule="evenodd" d="M757.852,328.314 L780.281,328.314 L780.281,366 L757.852,366 L757.852,328.314"/>
<path vector-effect="non-scaling-stroke" fill-rule="evenodd" d="M785.889,328.657 L808.319,328.657 L808.319,366 L785.889,366 L785.889,328.657"/>
<path vector-effect="non-scaling-stroke" fill-rule="evenodd" d="M813.926,330.029 L836.356,330.029 L836.356,366 L813.926,366 L813.926,330.029"/>
</g>

<g fill="none" stroke="#000000" stroke-opacity="1" stroke-width="1" stroke-linecap="square" stroke-linejoin="bevel" transform="matrix(1,0,0,1,0,0)"
font-family="Ubuntu" font-size="14.6667" font-weight="400" font-style="normal" 
>
</g>

<g fill="none" stroke="#000000" stroke-opacity="1" stroke-width="1" stroke-linecap="square" stroke-linejoin="bevel" transform="matrix(1,0,0,1,0,0)"
font-family="Ubuntu" font-size="14.6667" font-weight="400" font-style="normal" 
>
</g>

<g fill="none" stroke="#000000" stroke-opacity="1" stroke-width="1" stroke-linecap="square" stroke-linejoin="bevel" transform="matrix(1,0,0,1,0,0)"
font-family="Ubuntu" font-size="14.6667" font-weight="400" font-style="normal" 
>
</g>

<g fill="none" stroke="#3c3c3c" stroke-opacity="1" stroke-width="1" stroke-linecap="square" stroke-linejoin="bevel" transform="matrix(0,-1,1,0,5,375)"
font-family="DejaVu Sans" font-size="18.6667" font-weight="400" font-style="normal" 
>
</g>

<g fill="none" stroke="#000000" stroke-opacity="1" stroke-width="1" stroke-linecap="square" stroke-linejoin="bevel" transform="matrix(0,-1,1,0,5,375)"
font-family="DejaVu Sans" font-size="32" font-weight="400" font-style="normal" 
>
<text fill="#000000" fill-opacity="1" stroke="none" xml:space="preserve" x="61" y="30" font-family="DejaVu Sans" font-size="32" font-weight="400" font-style="normal" 
 >Nb occurrences</text>
</g>

<g fill="none" stroke="#3c3c3c" stroke-opacity="1" stroke-width="1" stroke-linecap="square" stroke-linejoin="bevel" transform="matrix(0,-1,1,0,5,375)"
font-family="DejaVu Sans" font-size="18.6667" font-weight="400" font-style="normal" 
>
</g>

<g fill="none" stroke="#000000" stroke-opacity="1" stroke-width="1" stroke-linecap="square" stroke-linejoin="bevel" transform="matrix(1,0,0,1,0,0)"
font-family="Ubuntu" font-size="14.6667" font-weight="400" font-style="normal" 
>
</g>

<g fill="none" stroke="#000000" stroke-opacity="1" stroke-width="1" stroke-linecap="square" stroke-linejoin="bevel" transform="matrix(1,0,0,1,0,0)"
font-family="DejaVu Sans" font-size="18.6667" font-weight="400" font-style="normal" 
>
</g>

<g fill="none" stroke="#3c3c3c" stroke-opacity="1" stroke-width="1" stroke-linecap="square" stroke-linejoin="bevel" transform="matrix(1,0,0,1,0,0)"
font-family="DejaVu Sans" font-size="18.6667" font-weight="400" font-style="normal" 
>
</g>

<g fill="none" stroke="#3c3c3c" stroke-opacity="1" stroke-width="1" stroke-linecap="square" stroke-linejoin="bevel" transform="matrix(1,0,0,1,88,354)"
font-family="DejaVu Sans" font-size="18.6667" font-weight="400" font-style="normal" 
>
<text fill="#3c3c3c" fill-opacity="1" stroke="none" xml:space="preserve" x="0" y="15" font-family="DejaVu Sans" font-size="18.6667" font-weight="400" font-style="normal" 
 >0</text>
</g>

<g fill="none" stroke="#3c3c3c" stroke-opacity="1" stroke-width="1" stroke-linecap="square" stroke-linejoin="bevel" transform="matrix(1,0,0,1,88,354)"
font-family="DejaVu Sans" font-size="18.6667" font-weight="400" font-style="normal" 
>
</g>

<g fill="none" stroke="#3c3c3c" stroke-opacity="1" stroke-width="1" stroke-linecap="square" stroke-linejoin="bevel" transform="matrix(1,0,0,1,0,0)"
font-family="DejaVu Sans" font-size="18.6667" font-weight="400" font-style="normal" 
>
</g>

<g fill="none" stroke="#3c3c3c" stroke-opacity="1" stroke-width="1" stroke-linecap="square" stroke-linejoin="bevel" transform="matrix(1,0,0,1,64,285)"
font-family="DejaVu Sans" font-size="18.6667" font-weight="400" font-style="normal" 
>
<text fill="#3c3c3c" fill-opacity="1" stroke="none" xml:space="preserve" x="0" y="15" font-family="DejaVu Sans" font-size="18.6667" font-weight="400" font-style="normal" 
 >200</text>
</g>

<g fill="none" stroke="#3c3c3c" stroke-opacity="1" stroke-width="1" stroke-linecap="square" stroke-linejoin="bevel" transform="matrix(1,0,0,1,64,285)"
font-family="DejaVu Sans" font-size="18.6667" font-weight="400" font-style="normal" 
>
</g>

<g fill="none" stroke="#3c3c3c" stroke-opacity="1" stroke-width="1" stroke-linecap="square" stroke-linejoin="bevel" transform="matrix(1,0,0,1,0,0)"
font-family="DejaVu Sans" font-size="18.6667" font-weight="400" font-style="normal" 
>
</g>

<g fill="none" stroke="#3c3c3c" stroke-opacity="1" stroke-width="1" stroke-linecap="square" stroke-linejoin="bevel" transform="matrix(1,0,0,1,64,217)"
font-family="DejaVu Sans" font-size="18.6667" font-weight="400" font-style="normal" 
>
<text fill="#3c3c3c" fill-opacity="1" stroke="none" xml:space="preserve" x="0" y="15" font-family="DejaVu Sans" font-size="18.6667" font-weight="400" font-style="normal" 
 >400</text>
</g>

<g fill="none" stroke="#3c3c3c" stroke-opacity="1" stroke-width="1" stroke-linecap="square" stroke-linejoin="bevel" transform="matrix(1,0,0,1,64,217)"
font-family="DejaVu Sans" font-size="18.6667" font-weight="400" font-style="normal" 
>
</g>

<g fill="none" stroke="#3c3c3c" stroke-opacity="1" stroke-width="1" stroke-linecap="square" stroke-linejoin="bevel" transform="matrix(1,0,0,1,0,0)"
font-family="DejaVu Sans" font-size="18.6667" font-weight="400" font-style="normal" 
>
</g>

<g fill="none" stroke="#3c3c3c" stroke-opacity="1" stroke-width="1" stroke-linecap="square" stroke-linejoin="bevel" transform="matrix(1,0,0,1,64,148)"
font-family="DejaVu Sans" font-size="18.6667" font-weight="400" font-style="normal" 
>
<text fill="#3c3c3c" fill-opacity="1" stroke="none" xml:space="preserve" x="0" y="15" font-family="DejaVu Sans" font-size="18.6667" font-weight="400" font-style="normal" 
 >600</text>
</g>

<g fill="none" stroke="#3c3c3c" stroke-opacity="1" stroke-width="1" stroke-linecap="square" stroke-linejoin="bevel" transform="matrix(1,0,0,1,64,148)"
font-family="DejaVu Sans" font-size="18.6667" font-weight="400" font-style="normal" 
>
</g>

<g fill="none" stroke="#3c3c3c" stroke-opacity="1" stroke-width="1" stroke-linecap="square" stroke-linejoin="bevel" transform="matrix(1,0,0,1,0,0)"
font-family="DejaVu Sans" font-size="18.6667" font-weight="400" font-style="normal" 
>
</g>

<g fill="none" stroke="#3c3c3c" stroke-opacity="1" stroke-width="1" stroke-linecap="square" stroke-linejoin="bevel" transform="matrix(1,0,0,1,64,80)"
font-family="DejaVu Sans" font-size="18.6667" font-weight="400" font-style="normal" 
>
<text fill="#3c3c3c" fill-opacity="1" stroke="none" xml:space="preserve" x="0" y="15" font-family="DejaVu Sans" font-size="18.6667" font-weight="400" font-style="normal" 
 >800</text>
</g>

<g fill="none" stroke="#3c3c3c" stroke-opacity="1" stroke-width="1" stroke-linecap="square" stroke-linejoin="bevel" transform="matrix(1,0,0,1,64,80)"
font-family="DejaVu Sans" font-size="18.6667" font-weight="400" font-style="normal" 
>
</g>

<g fill="none" stroke="#3c3c3c" stroke-opacity="1" stroke-width="1" stroke-linecap="square" stroke-linejoin="bevel" transform="matrix(1,0,0,1,0,0)"
font-family="DejaVu Sans" font-size="18.6667" font-weight="400" font-style="normal" 
>
</g>

<g fill="none" stroke="#3c3c3c" stroke-opacity="1" stroke-width="1" stroke-linecap="square" stroke-linejoin="bevel" transform="matrix(1,0,0,1,46,11)"
font-family="DejaVu Sans" font-size="18.6667" font-weight="400" font-style="normal" 
>
<text fill="#3c3c3c" fill-opacity="1" stroke="none" xml:space="preserve" x="0" y="15" font-family="DejaVu Sans" font-size="18.6667" font-weight="400" font-style="normal" 
 >1 000</text>
</g>

<g fill="none" stroke="#3c3c3c" stroke-opacity="1" stroke-width="1" stroke-linecap="square" stroke-linejoin="bevel" transform="matrix(1,0,0,1,46,11)"
font-family="DejaVu Sans" font-size="18.6667" font-weight="400" font-style="normal" 
>
</g>

<g fill="none" stroke="#3c3c3c" stroke-opacity="1" stroke-width="1" stroke-linecap="square" stroke-linejoin="bevel" transform="matrix(1,0,0,1,0,0)"
font-family="DejaVu Sans" font-size="18.6667" font-weight="400" font-style="normal" 
>
</g>

<g fill="none" stroke="#000000" stroke-opacity="1" stroke-width="1" stroke-linecap="square" stroke-linejoin="bevel" transform="matrix(1,0,0,1,0,0)"
font-family="DejaVu Sans" font-size="18.6667" font-weight="400" font-style="normal" 
>
<polyline fill="none" vector-effect="none" points="113,348 108,348 " />
<polyline fill="none" vector-effect="none" points="113,314 108,314 " />
<polyline fill="none" vector-effect="none" points="113,279 108,279 " />
<polyline fill="none" vector-effect="none" points="113,245 108,245 " />
<polyline fill="none" vector-effect="none" points="113,211 108,211 " />
<polyline fill="none" vector-effect="none" points="113,176 108,176 " />
<polyline fill="none" vector-effect="none" points="113,142 108,142 " />
<polyline fill="none" vector-effect="none" points="113,108 108,108 " />
<polyline fill="none" vector-effect="none" points="113,74 108,74 " />
<polyline fill="none" vector-effect="none" points="113,39 108,39 " />
<polyline fill="none" vector-effect="none" points="113,5 108,5 " />
<polyline fill="none" vector-effect="none" points="113,331 108,331 " />
<polyline fill="none" vector-effect="none" points="113,262 108,262 " />
<polyline fill="none" vector-effect="none" points="113,194 108,194 " />
<polyline fill="none" vector-effect="none" points="113,125 108,125 " />
<polyline fill="none" vector-effect="none" points="113,56 108,56 " />
<polyline fill="none" vector-effect="none" points="113,365 104,365 " />
<polyline fill="none" vector-effect="none" points="113,296 104,296 " />
<polyline fill="none" vector-effect="none" points="113,228 104,228 " />
<polyline fill="none" vector-effect="none" points="113,159 104,159 " />
<polyline fill="none" vector-effect="none" points="113,91 104,91 " />
<polyline fill="none" vector-effect="none" points="113,22 104,22 " />
</g>

<g fill="none" stroke="#000000" stroke-opacity="1" stroke-width="1" stroke-linecap="square" stroke-linejoin="bevel" transform="matrix(1,0,0,1,0,0)"
font-family="DejaVu Sans" font-size="18.6667" font-weight="400" font-style="normal" 
>
<polyline fill="none" vector-effect="none" points="113,5 113,365 " />
</g>

<g fill="none" stroke="#000000" stroke-opacity="1" stroke-width="1" stroke-linecap="square" stroke-linejoin="bevel" transform="matrix(1,0,0,1,0,0)"
font-family="DejaVu Sans" font-size="18.6667" font-weight="400" font-style="normal" 
>
</g>

<g fill="none" stroke="#000000" stroke-opacity="1" stroke-width="1" stroke-linecap="square" stroke-linejoin="bevel" transform="matrix(1,0,0,1,0,0)"
font-family="DejaVu Sans" font-size="18.6667" font-weight="400" font-style="normal" 
>
</g>

<g fill="none" stroke="#000000" stroke-opacity="1" stroke-width="1" stroke-linecap="square" stroke-linejoin="bevel" transform="matrix(1,0,0,1,0,0)"
font-family="Ubuntu" font-size="14.6667" font-weight="400" font-style="normal" 
>
</g>

<g fill="none" stroke="#3c3c3c" stroke-opacity="1" stroke-width="1" stroke-linecap="square" stroke-linejoin="bevel" transform="matrix(1,0,0,1,105,489)"
font-family="DejaVu Sans" font-size="21.3333" font-weight="400" font-style="normal" 
>
</g>

<g fill="none" stroke="#000000" stroke-opacity="1" stroke-width="1" stroke-linecap="square" stroke-linejoin="bevel" transform="matrix(1,0,0,1,105,489)"
font-family="DejaVu Sans" font-size="32" font-weight="400" font-style="normal" 
>
<text fill="#000000" fill-opacity="1" stroke="none" xml:space="preserve" x="288.5" y="31" font-family="DejaVu Sans" font-size="32" font-weight="400" font-style="normal" 
 >Monomères</text>
</g>

<g fill="none" stroke="#3c3c3c" stroke-opacity="1" stroke-width="1" stroke-linecap="square" stroke-linejoin="bevel" transform="matrix(1,0,0,1,105,489)"
font-family="DejaVu Sans" font-size="21.3333" font-weight="400" font-style="normal" 
>
</g>

<g fill="none" stroke="#000000" stroke-opacity="1" stroke-width="1" stroke-linecap="square" stroke-linejoin="bevel" transform="matrix(1,0,0,1,0,0)"
font-family="Ubuntu" font-size="14.6667" font-weight="400" font-style="normal" 
>
</g>

<g fill="none" stroke="#000000" stroke-opacity="1" stroke-width="1" stroke-linecap="square" stroke-linejoin="bevel" transform="matrix(1,0,0,1,0,0)"
font-family="DejaVu Sans" font-size="21.3333" font-weight="400" font-style="normal" 
>
</g>

<g fill="none" stroke="#3c3c3c" stroke-opacity="1" stroke-width="1" stroke-linecap="square" stroke-linejoin="bevel" transform="matrix(1,0,0,1,0,0)"
font-family="DejaVu Sans" font-size="21.3333" font-weight="400" font-style="normal" 
>
</g>

<g fill="none" stroke="#3c3c3c" stroke-opacity="1" stroke-width="1" stroke-linecap="square" stroke-linejoin="bevel" transform="matrix(0.707107,0.707107,-0.707107,0.707107,121.485,371.515)"
font-family="DejaVu Sans" font-size="21.3333" font-weight="400" font-style="normal" 
>
<text fill="#3c3c3c" fill-opacity="1" stroke="none" xml:space="preserve" x="0" y="17.5" font-family="DejaVu Sans" font-size="21.3333" font-weight="400" font-style="normal" 
 >Aib</text>
</g>

<g fill="none" stroke="#3c3c3c" stroke-opacity="1" stroke-width="1" stroke-linecap="square" stroke-linejoin="bevel" transform="matrix(0.707107,0.707107,-0.707107,0.707107,121.485,371.515)"
font-family="DejaVu Sans" font-size="21.3333" font-weight="400" font-style="normal" 
>
</g>

<g fill="none" stroke="#3c3c3c" stroke-opacity="1" stroke-width="1" stroke-linecap="square" stroke-linejoin="bevel" transform="matrix(1,0,0,1,0,0)"
font-family="DejaVu Sans" font-size="21.3333" font-weight="400" font-style="normal" 
>
</g>

<g fill="none" stroke="#3c3c3c" stroke-opacity="1" stroke-width="1" stroke-linecap="square" stroke-linejoin="bevel" transform="matrix(0.707107,0.707107,-0.707107,0.707107,149.485,371.515)"
font-family="DejaVu Sans" font-size="21.3333" font-weight="400" font-style="normal" 
>
<text fill="#3c3c3c" fill-opacity="1" stroke="none" xml:space="preserve" x="0" y="17.5" font-family="DejaVu Sans" font-size="21.3333" font-weight="400" font-style="normal" 
 >Pro</text>
</g>

<g fill="none" stroke="#3c3c3c" stroke-opacity="1" stroke-width="1" stroke-linecap="square" stroke-linejoin="bevel" transform="matrix(0.707107,0.707107,-0.707107,0.707107,149.485,371.515)"
font-family="DejaVu Sans" font-size="21.3333" font-weight="400" font-style="normal" 
>
</g>

<g fill="none" stroke="#3c3c3c" stroke-opacity="1" stroke-width="1" stroke-linecap="square" stroke-linejoin="bevel" transform="matrix(1,0,0,1,0,0)"
font-family="DejaVu Sans" font-size="21.3333" font-weight="400" font-style="normal" 
>
</g>

<g fill="none" stroke="#3c3c3c" stroke-opacity="1" stroke-width="1" stroke-linecap="square" stroke-linejoin="bevel" transform="matrix(0.707107,0.707107,-0.707107,0.707107,177.485,371.515)"
font-family="DejaVu Sans" font-size="21.3333" font-weight="400" font-style="normal" 
>
<text fill="#3c3c3c" fill-opacity="1" stroke="none" xml:space="preserve" x="0" y="17.5" font-family="DejaVu Sans" font-size="21.3333" font-weight="400" font-style="normal" 
 >Leu</text>
</g>

<g fill="none" stroke="#3c3c3c" stroke-opacity="1" stroke-width="1" stroke-linecap="square" stroke-linejoin="bevel" transform="matrix(0.707107,0.707107,-0.707107,0.707107,177.485,371.515)"
font-family="DejaVu Sans" font-size="21.3333" font-weight="400" font-style="normal" 
>
</g>

<g fill="none" stroke="#3c3c3c" stroke-opacity="1" stroke-width="1" stroke-linecap="square" stroke-linejoin="bevel" transform="matrix(1,0,0,1,0,0)"
font-family="DejaVu Sans" font-size="21.3333" font-weight="400" font-style="normal" 
>
</g>

<g fill="none" stroke="#3c3c3c" stroke-opacity="1" stroke-width="1" stroke-linecap="square" stroke-linejoin="bevel" transform="matrix(0.707107,0.707107,-0.707107,0.707107,206.192,372.222)"
font-family="DejaVu Sans" font-size="21.3333" font-weight="400" font-style="normal" 
>
<text fill="#3c3c3c" fill-opacity="1" stroke="none" xml:space="preserve" x="0" y="17.5" font-family="DejaVu Sans" font-size="21.3333" font-weight="400" font-style="normal" 
 >Ala</text>
</g>

<g fill="none" stroke="#3c3c3c" stroke-opacity="1" stroke-width="1" stroke-linecap="square" stroke-linejoin="bevel" transform="matrix(0.707107,0.707107,-0.707107,0.707107,206.192,372.222)"
font-family="DejaVu Sans" font-size="21.3333" font-weight="400" font-style="normal" 
>
</g>

<g fill="none" stroke="#3c3c3c" stroke-opacity="1" stroke-width="1" stroke-linecap="square" stroke-linejoin="bevel" transform="matrix(1,0,0,1,0,0)"
font-family="DejaVu Sans" font-size="21.3333" font-weight="400" font-style="normal" 
>
</g>

<g fill="none" stroke="#3c3c3c" stroke-opacity="1" stroke-width="1" stroke-linecap="square" stroke-linejoin="bevel" transform="matrix(0.707107,0.707107,-0.707107,0.707107,234.192,372.222)"
font-family="DejaVu Sans" font-size="21.3333" font-weight="400" font-style="normal" 
>
<text fill="#3c3c3c" fill-opacity="1" stroke="none" xml:space="preserve" x="0" y="17.5" font-family="DejaVu Sans" font-size="21.3333" font-weight="400" font-style="normal" 
 >Val</text>
</g>

<g fill="none" stroke="#3c3c3c" stroke-opacity="1" stroke-width="1" stroke-linecap="square" stroke-linejoin="bevel" transform="matrix(0.707107,0.707107,-0.707107,0.707107,234.192,372.222)"
font-family="DejaVu Sans" font-size="21.3333" font-weight="400" font-style="normal" 
>
</g>

<g fill="none" stroke="#3c3c3c" stroke-opacity="1" stroke-width="1" stroke-linecap="square" stroke-linejoin="bevel" transform="matrix(1,0,0,1,0,0)"
font-family="DejaVu Sans" font-size="21.3333" font-weight="400" font-style="normal" 
>
</g>

<g fill="none" stroke="#3c3c3c" stroke-opacity="1" stroke-width="1" stroke-linecap="square" stroke-linejoin="bevel" transform="matrix(0.707107,0.707107,-0.707107,0.707107,261.485,371.515)"
font-family="DejaVu Sans" font-size="21.3333" font-weight="400" font-style="normal" 
>
<text fill="#3c3c3c" fill-opacity="1" stroke="none" xml:space="preserve" x="1" y="17.5" font-family="DejaVu Sans" font-size="21.3333" font-weight="400" font-style="normal" 
 >Acides Gras</text>
</g>

<g fill="none" stroke="#3c3c3c" stroke-opacity="1" stroke-width="1" stroke-linecap="square" stroke-linejoin="bevel" transform="matrix(0.707107,0.707107,-0.707107,0.707107,261.485,371.515)"
font-family="DejaVu Sans" font-size="21.3333" font-weight="400" font-style="normal" 
>
</g>

<g fill="none" stroke="#3c3c3c" stroke-opacity="1" stroke-width="1" stroke-linecap="square" stroke-linejoin="bevel" transform="matrix(1,0,0,1,0,0)"
font-family="DejaVu Sans" font-size="21.3333" font-weight="400" font-style="normal" 
>
</g>

<g fill="none" stroke="#3c3c3c" stroke-opacity="1" stroke-width="1" stroke-linecap="square" stroke-linejoin="bevel" transform="matrix(0.707107,0.707107,-0.707107,0.707107,289.485,371.515)"
font-family="DejaVu Sans" font-size="21.3333" font-weight="400" font-style="normal" 
>
<text fill="#3c3c3c" fill-opacity="1" stroke="none" xml:space="preserve" x="0" y="17.5" font-family="DejaVu Sans" font-size="21.3333" font-weight="400" font-style="normal" 
 >Gln</text>
</g>

<g fill="none" stroke="#3c3c3c" stroke-opacity="1" stroke-width="1" stroke-linecap="square" stroke-linejoin="bevel" transform="matrix(0.707107,0.707107,-0.707107,0.707107,289.485,371.515)"
font-family="DejaVu Sans" font-size="21.3333" font-weight="400" font-style="normal" 
>
</g>

<g fill="none" stroke="#3c3c3c" stroke-opacity="1" stroke-width="1" stroke-linecap="square" stroke-linejoin="bevel" transform="matrix(1,0,0,1,0,0)"
font-family="DejaVu Sans" font-size="21.3333" font-weight="400" font-style="normal" 
>
</g>

<g fill="none" stroke="#3c3c3c" stroke-opacity="1" stroke-width="1" stroke-linecap="square" stroke-linejoin="bevel" transform="matrix(0.707107,0.707107,-0.707107,0.707107,318.192,372.222)"
font-family="DejaVu Sans" font-size="21.3333" font-weight="400" font-style="normal" 
>
<text fill="#3c3c3c" fill-opacity="1" stroke="none" xml:space="preserve" x="0" y="17.5" font-family="DejaVu Sans" font-size="21.3333" font-weight="400" font-style="normal" 
 >Gly</text>
</g>

<g fill="none" stroke="#3c3c3c" stroke-opacity="1" stroke-width="1" stroke-linecap="square" stroke-linejoin="bevel" transform="matrix(0.707107,0.707107,-0.707107,0.707107,318.192,372.222)"
font-family="DejaVu Sans" font-size="21.3333" font-weight="400" font-style="normal" 
>
</g>

<g fill="none" stroke="#3c3c3c" stroke-opacity="1" stroke-width="1" stroke-linecap="square" stroke-linejoin="bevel" transform="matrix(1,0,0,1,0,0)"
font-family="DejaVu Sans" font-size="21.3333" font-weight="400" font-style="normal" 
>
</g>

<g fill="none" stroke="#3c3c3c" stroke-opacity="1" stroke-width="1" stroke-linecap="square" stroke-linejoin="bevel" transform="matrix(0.707107,0.707107,-0.707107,0.707107,345.485,371.515)"
font-family="DejaVu Sans" font-size="21.3333" font-weight="400" font-style="normal" 
>
<text fill="#3c3c3c" fill-opacity="1" stroke="none" xml:space="preserve" x="1" y="17.5" font-family="DejaVu Sans" font-size="21.3333" font-weight="400" font-style="normal" 
 >Thr</text>
</g>

<g fill="none" stroke="#3c3c3c" stroke-opacity="1" stroke-width="1" stroke-linecap="square" stroke-linejoin="bevel" transform="matrix(0.707107,0.707107,-0.707107,0.707107,345.485,371.515)"
font-family="DejaVu Sans" font-size="21.3333" font-weight="400" font-style="normal" 
>
</g>

<g fill="none" stroke="#3c3c3c" stroke-opacity="1" stroke-width="1" stroke-linecap="square" stroke-linejoin="bevel" transform="matrix(1,0,0,1,0,0)"
font-family="DejaVu Sans" font-size="21.3333" font-weight="400" font-style="normal" 
>
</g>

<g fill="none" stroke="#3c3c3c" stroke-opacity="1" stroke-width="1" stroke-linecap="square" stroke-linejoin="bevel" transform="matrix(0.707107,0.707107,-0.707107,0.707107,373.485,371.515)"
font-family="DejaVu Sans" font-size="21.3333" font-weight="400" font-style="normal" 
>
<text fill="#3c3c3c" fill-opacity="1" stroke="none" xml:space="preserve" x="1" y="17.5" font-family="DejaVu Sans" font-size="21.3333" font-weight="400" font-style="normal" 
 >Ser</text>
</g>

<g fill="none" stroke="#3c3c3c" stroke-opacity="1" stroke-width="1" stroke-linecap="square" stroke-linejoin="bevel" transform="matrix(0.707107,0.707107,-0.707107,0.707107,373.485,371.515)"
font-family="DejaVu Sans" font-size="21.3333" font-weight="400" font-style="normal" 
>
</g>

<g fill="none" stroke="#3c3c3c" stroke-opacity="1" stroke-width="1" stroke-linecap="square" stroke-linejoin="bevel" transform="matrix(1,0,0,1,0,0)"
font-family="DejaVu Sans" font-size="21.3333" font-weight="400" font-style="normal" 
>
</g>

<g fill="none" stroke="#3c3c3c" stroke-opacity="1" stroke-width="1" stroke-linecap="square" stroke-linejoin="bevel" transform="matrix(0.707107,0.707107,-0.707107,0.707107,401.485,371.515)"
font-family="DejaVu Sans" font-size="21.3333" font-weight="400" font-style="normal" 
>
<text fill="#3c3c3c" fill-opacity="1" stroke="none" xml:space="preserve" x="0" y="17.5" font-family="DejaVu Sans" font-size="21.3333" font-weight="400" font-style="normal" 
 >Ile</text>
</g>

<g fill="none" stroke="#3c3c3c" stroke-opacity="1" stroke-width="1" stroke-linecap="square" stroke-linejoin="bevel" transform="matrix(0.707107,0.707107,-0.707107,0.707107,401.485,371.515)"
font-family="DejaVu Sans" font-size="21.3333" font-weight="400" font-style="normal" 
>
</g>

<g fill="none" stroke="#3c3c3c" stroke-opacity="1" stroke-width="1" stroke-linecap="square" stroke-linejoin="bevel" transform="matrix(1,0,0,1,0,0)"
font-family="DejaVu Sans" font-size="21.3333" font-weight="400" font-style="normal" 
>
</g>

<g fill="none" stroke="#3c3c3c" stroke-opacity="1" stroke-width="1" stroke-linecap="square" stroke-linejoin="bevel" transform="matrix(0.707107,0.707107,-0.707107,0.707107,429.485,371.515)"
font-family="DejaVu Sans" font-size="21.3333" font-weight="400" font-style="normal" 
>
<text fill="#3c3c3c" fill-opacity="1" stroke="none" xml:space="preserve" x="0" y="17.5" font-family="DejaVu Sans" font-size="21.3333" font-weight="400" font-style="normal" 
 >D-Leu</text>
</g>

<g fill="none" stroke="#3c3c3c" stroke-opacity="1" stroke-width="1" stroke-linecap="square" stroke-linejoin="bevel" transform="matrix(0.707107,0.707107,-0.707107,0.707107,429.485,371.515)"
font-family="DejaVu Sans" font-size="21.3333" font-weight="400" font-style="normal" 
>
</g>

<g fill="none" stroke="#3c3c3c" stroke-opacity="1" stroke-width="1" stroke-linecap="square" stroke-linejoin="bevel" transform="matrix(1,0,0,1,0,0)"
font-family="DejaVu Sans" font-size="21.3333" font-weight="400" font-style="normal" 
>
</g>

<g fill="none" stroke="#3c3c3c" stroke-opacity="1" stroke-width="1" stroke-linecap="square" stroke-linejoin="bevel" transform="matrix(0.707107,0.707107,-0.707107,0.707107,458.192,372.222)"
font-family="DejaVu Sans" font-size="21.3333" font-weight="400" font-style="normal" 
>
<text fill="#3c3c3c" fill-opacity="1" stroke="none" xml:space="preserve" x="0" y="17.5" font-family="DejaVu Sans" font-size="21.3333" font-weight="400" font-style="normal" 
 >D-Ala</text>
</g>

<g fill="none" stroke="#3c3c3c" stroke-opacity="1" stroke-width="1" stroke-linecap="square" stroke-linejoin="bevel" transform="matrix(0.707107,0.707107,-0.707107,0.707107,458.192,372.222)"
font-family="DejaVu Sans" font-size="21.3333" font-weight="400" font-style="normal" 
>
</g>

<g fill="none" stroke="#3c3c3c" stroke-opacity="1" stroke-width="1" stroke-linecap="square" stroke-linejoin="bevel" transform="matrix(1,0,0,1,0,0)"
font-family="DejaVu Sans" font-size="21.3333" font-weight="400" font-style="normal" 
>
</g>

<g fill="none" stroke="#3c3c3c" stroke-opacity="1" stroke-width="1" stroke-linecap="square" stroke-linejoin="bevel" transform="matrix(0.707107,0.707107,-0.707107,0.707107,486.192,372.222)"
font-family="DejaVu Sans" font-size="21.3333" font-weight="400" font-style="normal" 
>
<text fill="#3c3c3c" fill-opacity="1" stroke="none" xml:space="preserve" x="0" y="17.5" font-family="DejaVu Sans" font-size="21.3333" font-weight="400" font-style="normal" 
 >NMe-Leu</text>
</g>

<g fill="none" stroke="#3c3c3c" stroke-opacity="1" stroke-width="1" stroke-linecap="square" stroke-linejoin="bevel" transform="matrix(0.707107,0.707107,-0.707107,0.707107,486.192,372.222)"
font-family="DejaVu Sans" font-size="21.3333" font-weight="400" font-style="normal" 
>
</g>

<g fill="none" stroke="#3c3c3c" stroke-opacity="1" stroke-width="1" stroke-linecap="square" stroke-linejoin="bevel" transform="matrix(1,0,0,1,0,0)"
font-family="DejaVu Sans" font-size="21.3333" font-weight="400" font-style="normal" 
>
</g>

<g fill="none" stroke="#3c3c3c" stroke-opacity="1" stroke-width="1" stroke-linecap="square" stroke-linejoin="bevel" transform="matrix(0.707107,0.707107,-0.707107,0.707107,515.192,372.222)"
font-family="DejaVu Sans" font-size="21.3333" font-weight="400" font-style="normal" 
>
<text fill="#3c3c3c" fill-opacity="1" stroke="none" xml:space="preserve" x="0" y="17.5" font-family="DejaVu Sans" font-size="21.3333" font-weight="400" font-style="normal" 
 >NMe-Val</text>
</g>

<g fill="none" stroke="#3c3c3c" stroke-opacity="1" stroke-width="1" stroke-linecap="square" stroke-linejoin="bevel" transform="matrix(0.707107,0.707107,-0.707107,0.707107,515.192,372.222)"
font-family="DejaVu Sans" font-size="21.3333" font-weight="400" font-style="normal" 
>
</g>

<g fill="none" stroke="#3c3c3c" stroke-opacity="1" stroke-width="1" stroke-linecap="square" stroke-linejoin="bevel" transform="matrix(1,0,0,1,0,0)"
font-family="DejaVu Sans" font-size="21.3333" font-weight="400" font-style="normal" 
>
</g>

<g fill="none" stroke="#3c3c3c" stroke-opacity="1" stroke-width="1" stroke-linecap="square" stroke-linejoin="bevel" transform="matrix(0.707107,0.707107,-0.707107,0.707107,542.485,371.515)"
font-family="DejaVu Sans" font-size="21.3333" font-weight="400" font-style="normal" 
>
<text fill="#3c3c3c" fill-opacity="1" stroke="none" xml:space="preserve" x="0" y="17.5" font-family="DejaVu Sans" font-size="21.3333" font-weight="400" font-style="normal" 
 >Dab</text>
</g>

<g fill="none" stroke="#3c3c3c" stroke-opacity="1" stroke-width="1" stroke-linecap="square" stroke-linejoin="bevel" transform="matrix(0.707107,0.707107,-0.707107,0.707107,542.485,371.515)"
font-family="DejaVu Sans" font-size="21.3333" font-weight="400" font-style="normal" 
>
</g>

<g fill="none" stroke="#3c3c3c" stroke-opacity="1" stroke-width="1" stroke-linecap="square" stroke-linejoin="bevel" transform="matrix(1,0,0,1,0,0)"
font-family="DejaVu Sans" font-size="21.3333" font-weight="400" font-style="normal" 
>
</g>

<g fill="none" stroke="#3c3c3c" stroke-opacity="1" stroke-width="1" stroke-linecap="square" stroke-linejoin="bevel" transform="matrix(0.707107,0.707107,-0.707107,0.707107,570.485,371.515)"
font-family="DejaVu Sans" font-size="21.3333" font-weight="400" font-style="normal" 
>
<text fill="#3c3c3c" fill-opacity="1" stroke="none" xml:space="preserve" x="1" y="17.5" font-family="DejaVu Sans" font-size="21.3333" font-weight="400" font-style="normal" 
 >D-Ser</text>
</g>

<g fill="none" stroke="#3c3c3c" stroke-opacity="1" stroke-width="1" stroke-linecap="square" stroke-linejoin="bevel" transform="matrix(0.707107,0.707107,-0.707107,0.707107,570.485,371.515)"
font-family="DejaVu Sans" font-size="21.3333" font-weight="400" font-style="normal" 
>
</g>

<g fill="none" stroke="#3c3c3c" stroke-opacity="1" stroke-width="1" stroke-linecap="square" stroke-linejoin="bevel" transform="matrix(1,0,0,1,0,0)"
font-family="DejaVu Sans" font-size="21.3333" font-weight="400" font-style="normal" 
>
</g>

<g fill="none" stroke="#3c3c3c" stroke-opacity="1" stroke-width="1" stroke-linecap="square" stroke-linejoin="bevel" transform="matrix(0.707107,0.707107,-0.707107,0.707107,599.192,372.222)"
font-family="DejaVu Sans" font-size="21.3333" font-weight="400" font-style="normal" 
>
<text fill="#3c3c3c" fill-opacity="1" stroke="none" xml:space="preserve" x="0" y="17.5" font-family="DejaVu Sans" font-size="21.3333" font-weight="400" font-style="normal" 
 >Phe</text>
</g>

<g fill="none" stroke="#3c3c3c" stroke-opacity="1" stroke-width="1" stroke-linecap="square" stroke-linejoin="bevel" transform="matrix(0.707107,0.707107,-0.707107,0.707107,599.192,372.222)"
font-family="DejaVu Sans" font-size="21.3333" font-weight="400" font-style="normal" 
>
</g>

<g fill="none" stroke="#3c3c3c" stroke-opacity="1" stroke-width="1" stroke-linecap="square" stroke-linejoin="bevel" transform="matrix(1,0,0,1,0,0)"
font-family="DejaVu Sans" font-size="21.3333" font-weight="400" font-style="normal" 
>
</g>

<g fill="none" stroke="#3c3c3c" stroke-opacity="1" stroke-width="1" stroke-linecap="square" stroke-linejoin="bevel" transform="matrix(0.707107,0.707107,-0.707107,0.707107,627.192,372.222)"
font-family="DejaVu Sans" font-size="21.3333" font-weight="400" font-style="normal" 
>
<text fill="#3c3c3c" fill-opacity="1" stroke="none" xml:space="preserve" x="0" y="17.5" font-family="DejaVu Sans" font-size="21.3333" font-weight="400" font-style="normal" 
 >Asp</text>
</g>

<g fill="none" stroke="#3c3c3c" stroke-opacity="1" stroke-width="1" stroke-linecap="square" stroke-linejoin="bevel" transform="matrix(0.707107,0.707107,-0.707107,0.707107,627.192,372.222)"
font-family="DejaVu Sans" font-size="21.3333" font-weight="400" font-style="normal" 
>
</g>

<g fill="none" stroke="#3c3c3c" stroke-opacity="1" stroke-width="1" stroke-linecap="square" stroke-linejoin="bevel" transform="matrix(1,0,0,1,0,0)"
font-family="DejaVu Sans" font-size="21.3333" font-weight="400" font-style="normal" 
>
</g>

<g fill="none" stroke="#3c3c3c" stroke-opacity="1" stroke-width="1" stroke-linecap="square" stroke-linejoin="bevel" transform="matrix(0.707107,0.707107,-0.707107,0.707107,655.192,372.222)"
font-family="DejaVu Sans" font-size="21.3333" font-weight="400" font-style="normal" 
>
<text fill="#3c3c3c" fill-opacity="1" stroke="none" xml:space="preserve" x="0" y="17.5" font-family="DejaVu Sans" font-size="21.3333" font-weight="400" font-style="normal" 
 >Asn</text>
</g>

<g fill="none" stroke="#3c3c3c" stroke-opacity="1" stroke-width="1" stroke-linecap="square" stroke-linejoin="bevel" transform="matrix(0.707107,0.707107,-0.707107,0.707107,655.192,372.222)"
font-family="DejaVu Sans" font-size="21.3333" font-weight="400" font-style="normal" 
>
</g>

<g fill="none" stroke="#3c3c3c" stroke-opacity="1" stroke-width="1" stroke-linecap="square" stroke-linejoin="bevel" transform="matrix(1,0,0,1,0,0)"
font-family="DejaVu Sans" font-size="21.3333" font-weight="400" font-style="normal" 
>
</g>

<g fill="none" stroke="#3c3c3c" stroke-opacity="1" stroke-width="1" stroke-linecap="square" stroke-linejoin="bevel" transform="matrix(0.707107,0.707107,-0.707107,0.707107,683.192,372.222)"
font-family="DejaVu Sans" font-size="21.3333" font-weight="400" font-style="normal" 
>
<text fill="#3c3c3c" fill-opacity="1" stroke="none" xml:space="preserve" x="1" y="17.5" font-family="DejaVu Sans" font-size="21.3333" font-weight="400" font-style="normal" 
 >Glucides</text>
</g>

<g fill="none" stroke="#3c3c3c" stroke-opacity="1" stroke-width="1" stroke-linecap="square" stroke-linejoin="bevel" transform="matrix(0.707107,0.707107,-0.707107,0.707107,683.192,372.222)"
font-family="DejaVu Sans" font-size="21.3333" font-weight="400" font-style="normal" 
>
</g>

<g fill="none" stroke="#3c3c3c" stroke-opacity="1" stroke-width="1" stroke-linecap="square" stroke-linejoin="bevel" transform="matrix(1,0,0,1,0,0)"
font-family="DejaVu Sans" font-size="21.3333" font-weight="400" font-style="normal" 
>
</g>

<g fill="none" stroke="#3c3c3c" stroke-opacity="1" stroke-width="1" stroke-linecap="square" stroke-linejoin="bevel" transform="matrix(0.707107,0.707107,-0.707107,0.707107,710.485,371.515)"
font-family="DejaVu Sans" font-size="21.3333" font-weight="400" font-style="normal" 
>
<text fill="#3c3c3c" fill-opacity="1" stroke="none" xml:space="preserve" x="0" y="17.5" font-family="DejaVu Sans" font-size="21.3333" font-weight="400" font-style="normal" 
 >D-Val</text>
</g>

<g fill="none" stroke="#3c3c3c" stroke-opacity="1" stroke-width="1" stroke-linecap="square" stroke-linejoin="bevel" transform="matrix(0.707107,0.707107,-0.707107,0.707107,710.485,371.515)"
font-family="DejaVu Sans" font-size="21.3333" font-weight="400" font-style="normal" 
>
</g>

<g fill="none" stroke="#3c3c3c" stroke-opacity="1" stroke-width="1" stroke-linecap="square" stroke-linejoin="bevel" transform="matrix(1,0,0,1,0,0)"
font-family="DejaVu Sans" font-size="21.3333" font-weight="400" font-style="normal" 
>
</g>

<g fill="none" stroke="#3c3c3c" stroke-opacity="1" stroke-width="1" stroke-linecap="square" stroke-linejoin="bevel" transform="matrix(0.707107,0.707107,-0.707107,0.707107,739.192,372.222)"
font-family="DejaVu Sans" font-size="21.3333" font-weight="400" font-style="normal" 
>
<text fill="#3c3c3c" fill-opacity="1" stroke="none" xml:space="preserve" x="0" y="17.5" font-family="DejaVu Sans" font-size="21.3333" font-weight="400" font-style="normal" 
 >Hpg</text>
</g>

<g fill="none" stroke="#3c3c3c" stroke-opacity="1" stroke-width="1" stroke-linecap="square" stroke-linejoin="bevel" transform="matrix(0.707107,0.707107,-0.707107,0.707107,739.192,372.222)"
font-family="DejaVu Sans" font-size="21.3333" font-weight="400" font-style="normal" 
>
</g>

<g fill="none" stroke="#3c3c3c" stroke-opacity="1" stroke-width="1" stroke-linecap="square" stroke-linejoin="bevel" transform="matrix(1,0,0,1,0,0)"
font-family="DejaVu Sans" font-size="21.3333" font-weight="400" font-style="normal" 
>
</g>

<g fill="none" stroke="#3c3c3c" stroke-opacity="1" stroke-width="1" stroke-linecap="square" stroke-linejoin="bevel" transform="matrix(0.707107,0.707107,-0.707107,0.707107,767.192,372.222)"
font-family="DejaVu Sans" font-size="21.3333" font-weight="400" font-style="normal" 
>
<text fill="#3c3c3c" fill-opacity="1" stroke="none" xml:space="preserve" x="0" y="17.5" font-family="DejaVu Sans" font-size="21.3333" font-weight="400" font-style="normal" 
 >Ac-Aib</text>
</g>

<g fill="none" stroke="#3c3c3c" stroke-opacity="1" stroke-width="1" stroke-linecap="square" stroke-linejoin="bevel" transform="matrix(0.707107,0.707107,-0.707107,0.707107,767.192,372.222)"
font-family="DejaVu Sans" font-size="21.3333" font-weight="400" font-style="normal" 
>
</g>

<g fill="none" stroke="#3c3c3c" stroke-opacity="1" stroke-width="1" stroke-linecap="square" stroke-linejoin="bevel" transform="matrix(1,0,0,1,0,0)"
font-family="DejaVu Sans" font-size="21.3333" font-weight="400" font-style="normal" 
>
</g>

<g fill="none" stroke="#3c3c3c" stroke-opacity="1" stroke-width="1" stroke-linecap="square" stroke-linejoin="bevel" transform="matrix(0.707107,0.707107,-0.707107,0.707107,795.192,372.222)"
font-family="DejaVu Sans" font-size="21.3333" font-weight="400" font-style="normal" 
>
<text fill="#3c3c3c" fill-opacity="1" stroke="none" xml:space="preserve" x="0" y="17.5" font-family="DejaVu Sans" font-size="21.3333" font-weight="400" font-style="normal" 
 >Arg</text>
</g>

<g fill="none" stroke="#3c3c3c" stroke-opacity="1" stroke-width="1" stroke-linecap="square" stroke-linejoin="bevel" transform="matrix(0.707107,0.707107,-0.707107,0.707107,795.192,372.222)"
font-family="DejaVu Sans" font-size="21.3333" font-weight="400" font-style="normal" 
>
</g>

<g fill="none" stroke="#3c3c3c" stroke-opacity="1" stroke-width="1" stroke-linecap="square" stroke-linejoin="bevel" transform="matrix(1,0,0,1,0,0)"
font-family="DejaVu Sans" font-size="21.3333" font-weight="400" font-style="normal" 
>
</g>

<g fill="none" stroke="#3c3c3c" stroke-opacity="1" stroke-width="1" stroke-linecap="square" stroke-linejoin="bevel" transform="matrix(0.707107,0.707107,-0.707107,0.707107,823.192,372.222)"
font-family="DejaVu Sans" font-size="21.3333" font-weight="400" font-style="normal" 
>
<text fill="#3c3c3c" fill-opacity="1" stroke="none" xml:space="preserve" x="0" y="17.5" font-family="DejaVu Sans" font-size="21.3333" font-weight="400" font-style="normal" 
 >D-Glu</text>
</g>

<g fill="none" stroke="#3c3c3c" stroke-opacity="1" stroke-width="1" stroke-linecap="square" stroke-linejoin="bevel" transform="matrix(0.707107,0.707107,-0.707107,0.707107,823.192,372.222)"
font-family="DejaVu Sans" font-size="21.3333" font-weight="400" font-style="normal" 
>
</g>

<g fill="none" stroke="#3c3c3c" stroke-opacity="1" stroke-width="1" stroke-linecap="square" stroke-linejoin="bevel" transform="matrix(1,0,0,1,0,0)"
font-family="DejaVu Sans" font-size="21.3333" font-weight="400" font-style="normal" 
>
</g>

<g fill="none" stroke="#000000" stroke-opacity="1" stroke-width="1" stroke-linecap="square" stroke-linejoin="bevel" transform="matrix(1,0,0,1,0,0)"
font-family="DejaVu Sans" font-size="21.3333" font-weight="400" font-style="normal" 
>
<polyline fill="none" vector-effect="none" points="113,365 113,374 " />
<polyline fill="none" vector-effect="none" points="141,365 141,374 " />
<polyline fill="none" vector-effect="none" points="169,365 169,374 " />
<polyline fill="none" vector-effect="none" points="197,365 197,374 " />
<polyline fill="none" vector-effect="none" points="225,365 225,374 " />
<polyline fill="none" vector-effect="none" points="253,365 253,374 " />
<polyline fill="none" vector-effect="none" points="281,365 281,374 " />
<polyline fill="none" vector-effect="none" points="309,365 309,374 " />
<polyline fill="none" vector-effect="none" points="337,365 337,374 " />
<polyline fill="none" vector-effect="none" points="365,365 365,374 " />
<polyline fill="none" vector-effect="none" points="393,365 393,374 " />
<polyline fill="none" vector-effect="none" points="421,365 421,374 " />
<polyline fill="none" vector-effect="none" points="449,365 449,374 " />
<polyline fill="none" vector-effect="none" points="477,365 477,374 " />
<polyline fill="none" vector-effect="none" points="506,365 506,374 " />
<polyline fill="none" vector-effect="none" points="534,365 534,374 " />
<polyline fill="none" vector-effect="none" points="562,365 562,374 " />
<polyline fill="none" vector-effect="none" points="590,365 590,374 " />
<polyline fill="none" vector-effect="none" points="618,365 618,374 " />
<polyline fill="none" vector-effect="none" points="646,365 646,374 " />
<polyline fill="none" vector-effect="none" points="674,365 674,374 " />
<polyline fill="none" vector-effect="none" points="702,365 702,374 " />
<polyline fill="none" vector-effect="none" points="730,365 730,374 " />
<polyline fill="none" vector-effect="none" points="758,365 758,374 " />
<polyline fill="none" vector-effect="none" points="786,365 786,374 " />
<polyline fill="none" vector-effect="none" points="814,365 814,374 " />
<polyline fill="none" vector-effect="none" points="842,365 842,374 " />
<polyline fill="none" vector-effect="none" points="870,365 870,374 " />
</g>

<g fill="none" stroke="#000000" stroke-opacity="1" stroke-width="1" stroke-linecap="square" stroke-linejoin="bevel" transform="matrix(1,0,0,1,0,0)"
font-family="DejaVu Sans" font-size="21.3333" font-weight="400" font-style="normal" 
>
<polyline fill="none" vector-effect="none" points="113,365 870,365 " />
</g>

<g fill="none" stroke="#000000" stroke-opacity="1" stroke-width="1" stroke-linecap="square" stroke-linejoin="bevel" transform="matrix(1,0,0,1,0,0)"
font-family="DejaVu Sans" font-size="21.3333" font-weight="400" font-style="normal" 
>
</g>

<g fill="none" stroke="#000000" stroke-opacity="1" stroke-width="1" stroke-linecap="square" stroke-linejoin="bevel" transform="matrix(1,0,0,1,0,0)"
font-family="DejaVu Sans" font-size="21.3333" font-weight="400" font-style="normal" 
>
</g>

<g fill="none" stroke="#000000" stroke-opacity="1" stroke-width="1" stroke-linecap="square" stroke-linejoin="bevel" transform="matrix(1,0,0,1,0,0)"
font-family="Ubuntu" font-size="14.6667" font-weight="400" font-style="normal" 
>
</g>

<g fill="none" stroke="#000000" stroke-opacity="1" stroke-width="1" stroke-linecap="square" stroke-linejoin="bevel" transform="matrix(1,0,0,1,0,0)"
font-family="Ubuntu" font-size="14.6667" font-weight="400" font-style="normal" 
>
</g>
</g>
</svg>
